<svg width="80" height="80" xmlns="http://www.w3.org/2000/svg">
 <metadata id="metadata8">image/svg+xml</metadata>
 <defs>
  <clipPath id="clipPath312" clipPathUnits="userSpaceOnUse">
   <path id="path314" d="m1141.544434,-200.910477l-351.549011,0c0.620972,2.589813 1.289001,5.269516 1.976013,7.960907l0.605957,2.32811c10.558044,4.660187 15.675049,12.792999 33.504028,12.792999c24.945007,0 24.945007,-15.972595 49.893982,-15.972595c24.938049,0 24.938049,15.972595 49.869019,15.972595c24.929993,0 24.929993,-15.972595 49.870056,-15.972595c24.929932,0 24.929932,15.972595 49.859985,15.972595c24.929932,0 24.929932,-15.972595 49.849976,-15.972595c24.939941,0 24.939941,15.972595 49.859985,15.972595c4.75,0 8.589966,-0.582001 11.869995,-1.519501l0.52002,-2.453094c1.140015,-5.527405 2.459961,-12 3.869995,-19.109421"/>
  </clipPath>
  <clipPath id="clipPath330" clipPathUnits="userSpaceOnUse">
   <path id="path332" d="m1162.294434,-200.910477l-12.869995,0c-1.319946,6.699203 -2.569946,12.89061 -3.690063,18.320313l9.180054,-4.460892c0,0 3.040039,-4.69931 7.380005,-13.859421"/>
  </clipPath>
 </defs>
 <g>
  <title>Layer 1</title>
  <g id="contents">
   <path fill="#efede2" fill-rule="nonzero" d="m62.592499,79.544891l-45.641235,0c-9.323761,0 -16.951263,-7.628387 -16.951263,-16.952148l0,-45.641113c0,-9.324249 7.627502,-16.95163 16.951263,-16.95163l45.641235,0c9.32373,0 16.952515,7.62738 16.952515,16.95163l0,45.641113c0,9.323761 -7.628784,16.952148 -16.952515,16.952148" id="path254"/>
   <path fill="#dcd8c1" fill-rule="nonzero" d="m59.243744,75.950165l-38.942505,0c-0.988739,0 -1.797485,-0.808594 -1.797485,-1.797394l0,-0.253876c0,-0.98877 0.808746,-1.797394 1.797485,-1.797394l38.942505,0c0.987518,0 1.797485,0.808624 1.797485,1.797394l0,0.253876c0,0.9888 -0.809967,1.797394 -1.797485,1.797394" id="path256"/>
   <path fill="#515b5f" fill-rule="nonzero" d="m41.258728,38.28125l0,-34.163605c0,-0.821259 -0.66626,-1.486389 -1.486267,-1.486389c-0.821228,0 -1.486237,0.665131 -1.486237,1.486389l0,34.163605l1.486237,-1.28125l1.486267,1.28125" id="path258"/>
   <path fill="#3874c3" fill-rule="nonzero" d="m73.14624,28.542389c-0.17749,-0.835876 -0.404999,-1.661133 -0.681274,-2.469635c-0.964996,-2.833984 -2.514984,-5.483856 -4.539978,-7.866241c-0.288727,-0.34137 -0.588745,-0.675262 -0.89624,-1.005371c-0.617493,-0.657257 -1.272522,-1.293518 -1.961273,-1.903381c-1.035004,-0.915009 -2.147461,-1.775391 -3.331207,-2.572754c-5.918762,-3.983887 -13.595001,-6.398376 -21.963745,-6.398376c3.381226,0 6.483704,3.125 8.874969,8.278259c0.477509,1.03125 0.92749,2.144135 1.346252,3.329132c0.278748,0.7901 0.542511,1.61087 0.792511,2.463348c0.123749,0.425385 0.244995,0.858887 0.361237,1.298889c0.818756,3.082489 1.445007,6.512634 1.834991,10.177765c0.04248,0.394989 0.078766,0.795868 0.115021,1.196228c0.318756,-0.15863 0.644989,-0.351501 0.975006,-0.559113c2.90625,-1.554626 7.25,-2.922272 11.283752,-2.922272c4.519989,0 6.544983,0.87738 8.170013,1.50238c-0.075012,-0.861359 -0.202545,-1.710876 -0.380035,-2.548859" id="path260"/>
   <path fill="#66b1e5" fill-rule="nonzero" d="m28.39624,21.696259c0.584991,-2.201111 1.267487,-4.226135 2.032501,-6.032257c2.44751,-5.782745 5.736237,-9.336365 9.34375,-9.337372c-8.92749,0 -17.066254,2.747009 -23.123749,7.215759c-1.892517,1.397491 -3.58252,2.961487 -5.028748,4.664124c-2.026245,2.382385 -3.575012,5.032257 -4.539978,7.866241c-0.276276,0.808502 -0.503754,1.633759 -0.681274,2.469635c-0.178741,0.837982 -0.306244,1.6875 -0.381256,2.548859c1.626251,-0.625 3.651276,-1.50238 8.171265,-1.50238c4.032501,0 8.377502,1.367645 11.283722,2.922272c0.330017,0.207611 0.656281,0.401367 0.973785,0.559113c0.037476,-0.40036 0.07373,-0.801239 0.116241,-1.196228c0.389984,-3.665131 1.014984,-7.095276 1.83374,-10.177765" id="path262"/>
   <path fill="#4691d5" fill-rule="nonzero" d="m51.147491,21.696259c-0.116241,-0.440002 -0.237488,-0.873505 -0.361237,-1.298889c-0.25,-0.852478 -0.513763,-1.673248 -0.79248,-2.463348c-0.418762,-1.184998 -0.868774,-2.297882 -1.346283,-3.329132c-2.391266,-5.153259 -5.493713,-8.278259 -8.874969,-8.278259c-3.607513,0.001007 -6.896271,3.554626 -9.343781,9.337372c-0.764984,1.806122 -1.44751,3.831146 -2.032471,6.032257c-0.818756,3.082489 -1.443756,6.512634 -1.833771,10.177765c-0.04248,0.394989 -0.078735,0.795868 -0.116241,1.196228c2.279999,-0.75 4.236237,-1.519989 6.625,-2.048859c1.857513,-0.411133 3.975006,-0.67627 6.701263,-0.67627c3.11496,0 5.436249,0.346252 7.482483,0.861389c2.044983,0.514618 3.815002,1.19873 5.824982,1.873505c-0.018738,-0.410126 -0.054962,-0.811005 -0.097473,-1.205994c-0.390015,-3.665131 -1.016266,-7.095276 -1.835022,-10.177765" id="path264"/>
   <path fill="#da1071" fill-rule="nonzero" d="m38.459991,73.521393l2.625,0l0,-27.17627l-2.625,0l0,27.17627z" id="path266"/>
   <path fill="#ef268b" fill-rule="nonzero" d="m40.75,62.700134l-1.955017,0c-5.9375,0 -10.75,-4.813995 -10.75,-10.75l0,-14.738739l23.454987,0l0,14.738739c0,5.936005 -4.813721,10.75 -10.749969,10.75" id="path268"/>
   <path fill="#ef268b" fill-rule="nonzero" d="m30.441254,73.705017l18.662628,0l0,-2.296387l-18.662628,0l0,2.296387z" id="path270"/>
   <path fill="#efede2" fill-rule="nonzero" d="m44.504974,46.561523l-6.693756,0l4.053772,-10.953644l7.168732,0l-4.528748,10.953644" id="path272"/>
   <path fill="#efede2" fill-rule="nonzero" d="m37.057495,57.82901l4.326263,-13.405243l6.693726,0l-11.019989,13.405243" id="path274"/>
  </g>
 </g>
</svg>