<svg width="80" height="80" xmlns="http://www.w3.org/2000/svg">
 <metadata id="metadata8">image/svg+xml</metadata>
 <defs>
  <clipPath id="clipPath312" clipPathUnits="userSpaceOnUse">
   <path id="path314" d="m1141.544434,-200.910477l-351.549011,0c0.620972,2.589813 1.289001,5.269516 1.976013,7.960907l0.605957,2.32811c10.558044,4.660187 15.675049,12.792999 33.504028,12.792999c24.945007,0 24.945007,-15.972595 49.893982,-15.972595c24.938049,0 24.938049,15.972595 49.869019,15.972595c24.929993,0 24.929993,-15.972595 49.870056,-15.972595c24.929932,0 24.929932,15.972595 49.859985,15.972595c24.929932,0 24.929932,-15.972595 49.849976,-15.972595c24.939941,0 24.939941,15.972595 49.859985,15.972595c4.75,0 8.589966,-0.582001 11.869995,-1.519501l0.52002,-2.453094c1.140015,-5.527405 2.459961,-12 3.869995,-19.109421"/>
  </clipPath>
  <clipPath id="clipPath330" clipPathUnits="userSpaceOnUse">
   <path id="path332" d="m1162.294434,-200.910477l-12.869995,0c-1.319946,6.699203 -2.569946,12.89061 -3.690063,18.320313l9.180054,-4.460892c0,0 3.040039,-4.69931 7.380005,-13.859421"/>
  </clipPath>
 </defs>
 <g>
  <title>Layer 1</title>
  <g id="death">
   <path fill="#efede2" fill-rule="nonzero" d="m62.592499,79.544861l-45.641235,0c-9.323761,0 -16.951263,-7.628372 -16.951263,-16.951111l0,-45.642502c0,-9.32251 7.627502,-16.951248 16.951263,-16.951248l45.641235,0c9.32373,0 16.952515,7.628738 16.952515,16.951248l0,45.642502c0,9.322739 -7.628784,16.951111 -16.952515,16.951111" id="path222"/>
   <path fill="#dcd8c1" fill-rule="nonzero" d="m54.253723,75.950134l-28.962494,0c-1.058746,0 -1.923737,-0.866135 -1.923737,-1.923767c0,-1.058624 0.86499,-1.923874 1.923737,-1.923874l28.962494,0c1.057526,0 1.923767,0.86525 1.923767,1.923874c0,1.057632 -0.866241,1.923767 -1.923767,1.923767" id="path224"/>
   <path fill="#515b5f" fill-rule="nonzero" d="m39.772491,61.791489c-0.821259,0 -1.486237,-0.665115 -1.486237,-1.486374l0,-56.187622c0,-0.821259 0.664978,-1.486252 1.486237,-1.486252c0.820007,0 1.486237,0.664993 1.486237,1.486252l0,56.187622c0,0.821259 -0.666229,1.486374 -1.486237,1.486374" id="path226"/>
   <path fill="#515b5f" fill-rule="nonzero" d="m40.024994,61.791489c-0.820007,0 -1.486267,-0.665115 -1.486267,-1.486374l0,-56.187622c0,-0.821259 0.66626,-1.486252 1.486267,-1.486252c0.821228,0 1.486237,0.664993 1.486237,1.486252l0,56.187622c0,0.821259 -0.665009,1.486374 -1.486237,1.486374" id="path228"/>
   <path fill="#3874c3" fill-rule="nonzero" d="m73.14624,28.543747c-0.17749,-0.837494 -0.404999,-1.662506 -0.681274,-2.471252c-0.964996,-2.833755 -2.514984,-5.483749 -4.539978,-7.866257c-0.288727,-0.339996 -0.588745,-0.675003 -0.89624,-1.003738c-0.617493,-0.658752 -1.272522,-1.293747 -1.961273,-1.904999c-1.035004,-0.915009 -2.147461,-1.774994 -3.331207,-2.571259c-5.918762,-3.985001 -13.595001,-6.398743 -21.963745,-6.398743c3.381226,0 6.483704,3.123749 8.874969,8.278748c0.477509,1.03125 0.92749,2.142502 1.346252,3.327499c0.278748,0.789993 0.542511,1.612503 0.792511,2.46376c0.123749,0.426239 0.244995,0.858734 0.361237,1.298737c0.818756,3.082504 1.445007,6.512512 1.834991,10.177505c0.04248,0.395004 0.078766,0.796265 0.115021,1.197495c0.318756,-0.158752 0.644989,-0.352493 0.975006,-0.559998c2.90625,-1.553741 7.25,-2.922501 11.283752,-2.922501c4.519989,0 6.544983,0.877502 8.170013,1.502502c-0.075012,-0.860001 -0.202545,-1.711258 -0.380035,-2.547501" id="path230"/>
   <path fill="#66b1e5" fill-rule="nonzero" d="m28.39624,21.696243c0.584991,-2.201248 1.267487,-4.224991 2.032501,-6.032501c2.44751,-5.782501 5.736237,-9.336243 9.34375,-9.336243c-8.92749,0 -17.066254,2.747513 -23.123749,7.216263c-1.892517,1.39624 -3.58252,2.961227 -5.028748,4.662491c-2.026245,2.382507 -3.575012,5.032486 -4.539978,7.866257c-0.276276,0.808746 -0.503754,1.633759 -0.681274,2.471252c-0.178741,0.836227 -0.306244,1.6875 -0.381256,2.547501c1.626251,-0.625 3.651276,-1.502502 8.171265,-1.502502c4.032501,0 8.377502,1.368759 11.283722,2.922501c0.330017,0.207489 0.656281,0.401245 0.973785,0.559998c0.037476,-0.401245 0.07373,-0.802505 0.116241,-1.197495c0.389984,-3.664993 1.014984,-7.095001 1.83374,-10.177505" id="path232"/>
   <path fill="#4691d5" fill-rule="nonzero" d="m51.147491,21.696243c-0.116241,-0.440002 -0.237488,-0.872498 -0.361237,-1.298737c-0.25,-0.851257 -0.513763,-1.673767 -0.79248,-2.46376c-0.418762,-1.184998 -0.868774,-2.296249 -1.346283,-3.327499c-2.391266,-5.154999 -5.493713,-8.278748 -8.874969,-8.278748c-3.607513,0 -6.896271,3.553741 -9.343781,9.336243c-0.764984,1.80751 -1.44751,3.831238 -2.032471,6.032501c-0.818756,3.082489 -1.443756,6.512497 -1.833771,10.177505c-0.04248,0.394989 -0.078735,0.796249 -0.116241,1.197495c2.279999,-0.75 4.236237,-1.52124 6.625,-2.050003c1.857513,-0.41124 3.975006,-0.676239 6.701263,-0.676239c3.11496,0 5.436249,0.346252 7.482483,0.861237c2.044983,0.515015 3.815002,1.198761 5.824982,1.873764c-0.018738,-0.410004 -0.054962,-0.811264 -0.097473,-1.206253c-0.390015,-3.664993 -1.016266,-7.095001 -1.835022,-10.177505" id="path234"/>
   <path fill="#3874c3" fill-rule="nonzero" d="m73.14624,28.543747c-0.17749,-0.837494 -0.404999,-1.662506 -0.681274,-2.471252c-0.964996,-2.833755 -2.514984,-5.483749 -4.539978,-7.866257c-0.288727,-0.339996 -0.588745,-0.675003 -0.89624,-1.003738c-0.617493,-0.658752 -1.272522,-1.293747 -1.961273,-1.904999c-1.035004,-0.915009 -2.147461,-1.774994 -3.331207,-2.571259c-5.918762,-3.985001 -13.595001,-6.398743 -21.963745,-6.398743c3.381226,0 6.483704,3.123749 8.874969,8.278748c0.477509,1.03125 0.92749,2.142502 1.346252,3.327499c0.278748,0.789993 0.542511,1.612503 0.792511,2.46376c0.123749,0.426239 0.244995,0.858734 0.361237,1.298737c0.818756,3.082504 1.445007,6.512512 1.834991,10.177505c0.04248,0.395004 0.078766,0.796265 0.115021,1.197495c0.318756,-0.158752 0.644989,-0.352493 0.975006,-0.559998c2.90625,-1.553741 7.25,-2.922501 11.283752,-2.922501c4.519989,0 6.544983,0.877502 8.170013,1.502502c-0.075012,-0.860001 -0.202545,-1.711258 -0.380035,-2.547501" id="path236"/>
   <path fill="#66b1e5" fill-rule="nonzero" d="m28.39624,21.696243c0.584991,-2.201248 1.267487,-4.224991 2.032501,-6.032501c2.44751,-5.782501 5.736237,-9.336243 9.34375,-9.336243c-8.92749,0 -17.066254,2.747513 -23.123749,7.216263c-1.892517,1.39624 -3.58252,2.961227 -5.028748,4.662491c-2.026245,2.382507 -3.575012,5.032486 -4.539978,7.866257c-0.276276,0.808746 -0.503754,1.633759 -0.681274,2.471252c-0.178741,0.836227 -0.306244,1.6875 -0.381256,2.547501c1.626251,-0.625 3.651276,-1.502502 8.171265,-1.502502c4.032501,0 8.377502,1.368759 11.283722,2.922501c0.330017,0.207489 0.656281,0.401245 0.973785,0.559998c0.037476,-0.401245 0.07373,-0.802505 0.116241,-1.197495c0.389984,-3.664993 1.014984,-7.095001 1.83374,-10.177505" id="path238"/>
   <path fill="#4691d5" fill-rule="nonzero" d="m51.147491,21.696243c-0.116241,-0.440002 -0.237488,-0.872498 -0.361237,-1.298737c-0.25,-0.851257 -0.513763,-1.673767 -0.79248,-2.46376c-0.418762,-1.184998 -0.868774,-2.296249 -1.346283,-3.327499c-2.391266,-5.154999 -5.493713,-8.278748 -8.874969,-8.278748c-3.607513,0 -6.896271,3.553741 -9.343781,9.336243c-0.764984,1.80751 -1.44751,3.831238 -2.032471,6.032501c-0.818756,3.082489 -1.443756,6.512497 -1.833771,10.177505c-0.04248,0.394989 -0.078735,0.796249 -0.116241,1.197495c2.279999,-0.75 4.236237,-1.52124 6.625,-2.050003c1.857513,-0.41124 3.975006,-0.676239 6.701263,-0.676239c3.11496,0 5.436249,0.346252 7.482483,0.861237c2.044983,0.515015 3.815002,1.198761 5.824982,1.873764c-0.018738,-0.410004 -0.054962,-0.811264 -0.097473,-1.206253c-0.390015,-3.664993 -1.016266,-7.095001 -1.835022,-10.177505" id="path240"/>
   <path fill="#efede2" fill-rule="nonzero" d="m34.574982,43.253738l0.070007,-0.024994c-0.058746,0.322495 -0.087524,0.654999 -0.078766,0.996246l-1.02124,2.57251l1.255005,1.253738c1.158752,1.160141 1.702484,2.677765 1.773743,4.285141c0.019989,0.443878 -0.029999,0.878387 -0.127502,1.302261l0.956238,-0.458511c0.780029,-0.375 1.38501,-1.022491 1.703766,-1.826111l0.772491,-1.947769c0.713745,0.905258 1.162506,2.788513 1.212494,5.151382c0.008759,0.40863 0.070007,0.81488 0.182526,1.208511l-3.782501,4.447739c-0.568756,0.668381 -0.882507,1.521011 -0.882507,2.399857l0,4.967255l7.407501,0l0,-0.366241l0.107483,0.366241l7.722504,0l-1.631256,-5.538498l-0.08374,-4.134872l-0.018738,-0.932632l-0.003754,-0.153748l0.081238,-0.148849c0.568756,-0.855011 0.755005,-1.892151 0.519989,-2.891144c-0.204987,-5.129868 -1.689972,-9.03624 -4.414978,-11.608734c-2.76001,-2.608749 -5.735016,-2.890015 -6.88501,-2.890015l-0.191254,0.002518c-0.242493,0.008743 -0.478729,0.041245 -0.711243,0.084991c0.351257,-1.103729 0.387512,-2.318741 0.027496,-3.507507c-0.761261,-2.52124 -3.041229,-4.216232 -5.673737,-4.216232c-0.580017,0 -1.157501,0.086243 -1.717499,0.25499c-1.516266,0.458771 -2.762512,1.480011 -3.511261,2.876251c-0.747498,1.395004 -0.907501,2.998749 -0.449982,4.514999c0.762482,2.522491 3.04248,4.216263 5.674988,4.216263c0.579987,0 1.157501,-0.086243 1.717499,-0.255005" id="path242"/>
   <path fill="#594b5a" fill-rule="nonzero" d="m32.857483,42.038742c0.427521,0 0.861267,-0.061249 1.292511,-0.191238c0.575012,-0.173752 1.088745,-0.455002 1.527496,-0.813751c0.193756,-0.232483 0.408752,-0.447495 0.642517,-0.641251c0.901245,-1.110001 1.253723,-2.632492 0.808716,-4.105011c-0.582489,-1.92749 -2.352478,-3.171249 -4.267456,-3.171249c-0.427521,0 -0.862518,0.061264 -1.292542,0.191254c-2.357483,0.712494 -3.691254,3.202499 -2.978729,5.559998c0.582489,1.928757 2.352509,3.171249 4.267487,3.171249" id="path244"/>
   <path fill="#ef268b" fill-rule="nonzero" d="m31.383759,54.434998l-1.668762,0.799866c0.67749,0.43013 1.133759,1.18013 1.149994,2.036636c0.008759,0.435013 0.306244,0.832504 0.737518,0.886124c0.513733,0.0625 0.951233,-0.33638 0.951233,-0.837875c0,-1.119629 -0.44751,-2.136246 -1.169983,-2.88475" id="path246"/>
   <path fill="#ef268b" fill-rule="nonzero" d="m24.237488,57.319748l0,14.866745c0,0.440857 0.317505,0.842239 0.756287,0.887238c0.504974,0.050262 0.931244,-0.344757 0.931244,-0.839859l0,-14.914124c0,-1.09375 0.714996,-2.022369 1.702484,-2.34613l-0.703735,-1.53862c-1.567505,0.596252 -2.686279,2.111374 -2.686279,3.88475" id="path248"/>
   <path fill="#726673" fill-rule="nonzero" d="m51.058746,70.111252l-2.308746,-7.842758l-0.297485,-3.710007l-4.002533,4.927765l2.32251,7.886246c0.286255,0.973633 1.17627,1.604996 2.142517,1.604996c0.208771,0 0.421265,-0.029739 0.631256,-0.091248c1.183746,-0.348755 1.861237,-1.59137 1.512482,-2.774994" id="path250"/>
   <path fill="#594b5a" fill-rule="nonzero" d="m49.159973,52.557617c-0.362488,-4.096375 -1.660004,-7.226364 -3.873749,-9.317627c-2.441254,-2.306244 -5.084991,-2.487488 -5.876251,-2.487488l-0.143738,0.001236c-0.730011,0.02626 -1.39624,0.286255 -1.931244,0.702515c-0.190002,0.219986 -0.39502,0.42749 -0.616272,0.618729c-0.453735,0.595001 -0.711243,1.34375 -0.682495,2.148743l0.018738,0.230011l-1.66748,4.204865l-6.356232,3.046387c-0.690002,0.331116 -1.152496,1.004868 -1.107513,1.729996c0.044983,0.72612 0.502502,1.306122 0.703766,1.53862c0.201233,0.231384 0.794983,0.450134 1.251221,0.450134c0.279999,0 0.565002,-0.061005 0.836273,-0.188889l1.668732,-0.799866l5.383759,-2.580002c0.443756,-0.212509 0.791229,-0.584991 0.972504,-1.042511l1.338745,-3.373734l0.331238,0.016251l0.095001,-0.001251c0.005005,0 0.617493,0.130005 1.178741,0.659988c1.14502,1.082504 1.811279,3.359879 1.876282,6.412643c0.012482,0.551239 0.157471,1.067368 0.403748,1.520996l-4.35376,5.11911c-0.34375,0.403259 -0.532501,0.917511 -0.532501,1.44725l0,8.032761c0,1.167374 0.85376,2.208496 2.015015,2.319748c1.33374,0.127502 2.453735,-0.917496 2.453735,-2.223618l0,-7.307632c0,0 3.947479,-4.488739 5.790009,-7.470245c0.628723,-1.020004 0.929993,-2.214752 0.82373,-3.407135" id="path252"/>
  </g>
 </g>
</svg>