<svg width="80" height="80" xmlns="http://www.w3.org/2000/svg">
 <metadata id="metadata8">image/svg+xml</metadata>
 <defs>
  <clipPath id="clipPath312" clipPathUnits="userSpaceOnUse">
   <path id="path314" d="m1236.689941,67.859398l-351.549011,0c0.620972,2.589813 1.289001,5.269501 1.976013,7.960899l0.605957,2.328102c10.558044,4.660202 15.675049,12.792999 33.504028,12.792999c24.945007,0 24.945007,-15.972595 49.893982,-15.972595c24.938049,0 24.938049,15.972595 49.869019,15.972595c24.929993,0 24.929993,-15.972595 49.870056,-15.972595c24.929932,0 24.929932,15.972595 49.859985,15.972595c24.929932,0 24.929932,-15.972595 49.849976,-15.972595c24.939941,0 24.939941,15.972595 49.859985,15.972595c4.75,0 8.589966,-0.582001 11.869995,-1.519501l0.52002,-2.453087c1.140015,-5.527405 2.459961,-12 3.869995,-19.109413"/>
  </clipPath>
  <clipPath id="clipPath330" clipPathUnits="userSpaceOnUse">
   <path id="path332" d="m1257.439941,67.859398l-12.869995,0c-1.319946,6.699203 -2.569946,12.890602 -3.690063,18.320305l9.180054,-4.460899c0,0 3.040039,-4.699303 7.380005,-13.859413"/>
  </clipPath>
 </defs>
 <g>
  <title>Layer 1</title>
  <g id="incomeprotection">
   <path fill="#efede2" fill-rule="nonzero" d="m62.592819,79.544891l-45.64163,0c-9.323249,0 -16.951189,-7.628387 -16.951189,-16.952148l0,-45.641113c0,-9.324249 7.62794,-16.95163 16.951189,-16.95163l45.64163,0c9.323753,0 16.951622,7.62738 16.951622,16.95163l0,45.641113c0,9.323761 -7.627876,16.952148 -16.951622,16.952148" id="path372"/>
   <path fill="#515b5f" fill-rule="nonzero" d="m41.258312,33.012634l0,-28.894989c0,-0.821259 -0.665501,-1.486389 -1.48637,-1.486389c-0.820251,0 -1.485752,0.665131 -1.485752,1.486389l0,28.894989l2.97213,0" id="path374"/>
   <path fill="#3874c3" fill-rule="nonzero" d="m73.146439,28.542389c-0.17775,-0.835876 -0.40625,-1.661133 -0.681618,-2.469635c-0.965256,-2.833984 -2.514626,-5.483856 -4.540001,-7.866241c-0.289505,-0.34137 -0.588379,-0.675262 -0.896996,-1.005371c-0.616623,-0.657257 -1.2715,-1.293518 -1.960884,-1.903381c-1.034248,-0.915009 -2.147499,-1.775391 -3.331116,-2.572754c-5.918003,-3.983887 -13.594753,-6.398376 -21.963875,-6.398376c3.38187,0 6.483883,3.125 8.875,8.278259c0.4785,1.03125 0.928253,2.144135 1.346252,3.329132c0.278748,0.7901 0.542999,1.61087 0.7925,2.463348c0.1245,0.425385 0.245499,0.858887 0.362251,1.298889c0.818378,3.082489 1.44437,6.512634 1.834499,10.177765c0.042007,0.394989 0.078629,0.795868 0.11525,1.196228c0.318871,-0.15863 0.644501,-0.351501 0.974121,-0.559113c2.90625,-1.554626 7.250999,-2.922272 11.28363,-2.922272c4.520485,0 6.545502,0.87738 8.170868,1.50238c-0.074623,-0.861359 -0.202118,-1.710876 -0.379883,-2.548859" id="path376"/>
   <path fill="#66b1e5" fill-rule="nonzero" d="m28.396441,21.696259c0.584499,-2.201111 1.26712,-4.226135 2.03175,-6.032257c2.447752,-5.782745 5.736872,-9.336365 9.343752,-9.337372c-8.926752,0 -17.065882,2.747009 -23.123503,7.215759c-1.89263,1.397491 -3.5825,2.961487 -5.029248,4.664124c-2.0255,2.382385 -3.574751,5.032257 -4.539631,7.866241c-0.27588,0.808502 -0.50387,1.633759 -0.68161,2.469635c-0.17774,0.837982 -0.30518,1.6875 -0.38038,2.548859c1.62549,-0.625 3.650361,-1.50238 8.170859,-1.50238c4.033251,0 8.377501,1.367645 11.28425,2.922272c0.3295,0.207611 0.655752,0.401367 0.974119,0.559113c0.036621,-0.40036 0.07275,-0.801239 0.11525,-1.196228c0.389622,-3.665131 1.015633,-7.095276 1.83437,-10.177765" id="path378"/>
   <path fill="#4691d5" fill-rule="nonzero" d="m51.147942,21.696259c-0.116749,-0.440002 -0.237751,-0.873505 -0.362251,-1.298889c-0.2495,-0.852478 -0.51376,-1.673248 -0.7925,-2.463348c-0.417999,-1.184998 -0.867748,-2.297882 -1.346249,-3.329132c-2.391121,-5.153259 -5.49313,-8.278259 -8.875,-8.278259c-3.60688,0.001007 -6.896,3.554626 -9.343752,9.337372c-0.764629,1.806122 -1.44725,3.831146 -2.03175,6.032257c-0.818752,3.082489 -1.444752,6.512634 -1.83437,10.177765c-0.0425,0.394989 -0.078632,0.795868 -0.11525,1.196228c2.279247,-0.75 4.236248,-1.519989 6.623999,-2.048859c1.85738,-0.411133 3.97562,-0.67627 6.70113,-0.67627c3.115253,0 5.437,0.346252 7.482502,0.861389c2.04538,0.514618 3.81488,1.19873 5.82563,1.873505c-0.019001,-0.410126 -0.055622,-0.811005 -0.09763,-1.205994c-0.390121,-3.665131 -1.016121,-7.095276 -1.834499,-10.177765" id="path380"/>
   <path fill="#dcd8c1" fill-rule="nonzero" d="m55.739311,75.950165l-28.962,0c-1.058132,0 -1.923752,-0.866211 -1.923752,-1.923767c0,-1.058624 0.86562,-1.924896 1.923752,-1.924896l28.962,0c1.057999,0 1.923752,0.866272 1.923752,1.924896c0,1.057556 -0.865753,1.923767 -1.923752,1.923767" id="path382"/>
   <path fill="#594b5a" fill-rule="nonzero" d="m39.533192,43.166504c2.563499,0 4.641628,-2.078613 4.641628,-4.642609c0,-2.564026 -2.078129,-4.642639 -4.641628,-4.642639c-2.563499,0 -4.64262,2.078613 -4.64262,4.642639c0,2.563995 2.079121,4.642609 4.64262,4.642609" id="path384"/>
   <path fill="#594b5a" fill-rule="nonzero" d="m39.532692,62.325134c-2.200119,0 -3.984379,-1.78363 -3.984379,-3.984863l0,-9.523895c0,-2.200256 1.784248,-3.984863 3.984379,-3.984863c2.200748,0 3.984379,1.784607 3.984379,3.984863l0,9.523895c0,2.201233 -1.783619,3.984863 -3.984379,3.984863" id="path386"/>
   <path fill="#594b5a" fill-rule="nonzero" d="m48.943321,62.366119l-9.498001,0c-1.141617,0 -2.075249,-0.933472 -2.075249,-2.074615c0,-1.142609 0.933632,-2.076233 2.075249,-2.076233l9.498001,0c1.141121,0 2.075249,0.933624 2.075249,2.076233c0,1.141144 -0.93412,2.074615 -2.075249,2.074615" id="path388"/>
   <path fill="#594b5a" fill-rule="nonzero" d="m52.617191,69.28363l-5.397999,-7.81488c-0.648373,-0.940002 -0.410622,-2.238861 0.528378,-2.887238c0.939503,-0.648895 2.238251,-0.411621 2.887253,0.527374l5.397877,7.81488c0.648502,0.940002 0.410633,2.238739 -0.528248,2.887726c-0.938999,0.648376 -2.238369,0.411133 -2.887249,-0.527863" id="path390"/>
   <path fill="#594b5a" fill-rule="nonzero" d="m44.333942,54.745148l-4.446751,-6.4375c-0.53413,-0.774017 -0.338379,-1.844757 0.435131,-2.379028c0.773869,-0.534607 1.84425,-0.338348 2.378368,0.43515l4.446251,6.4375c0.53476,0.773865 0.338879,1.84375 -0.435001,2.378876c-0.773499,0.533752 -1.84375,0.338867 -2.377998,-0.434998" id="path392"/>
   <path fill="#594b5a" fill-rule="nonzero" d="m45.903812,55.470123l6.119129,0c0.940498,0 1.709999,-0.768982 1.709999,-1.709869c0,-0.940002 -0.769501,-1.708984 -1.709999,-1.708984l-6.119129,0c-0.94038,0 -1.709499,0.768982 -1.709499,1.708984c0,0.940887 0.769119,1.709869 1.709499,1.709869" id="path394"/>
   <path fill="#ef268b" fill-rule="nonzero" d="m39.532692,70.67627c-5.726501,0 -10.385252,-4.658752 -10.385252,-10.386261c0,-3.443878 1.688499,-6.49762 4.277372,-8.387238l0,-3.544891c-4.332502,2.226013 -7.306631,6.73587 -7.306631,11.932129c0,7.397491 6.018,13.415009 13.414499,13.415009c4.236382,0 8.017632,-1.976013 10.478001,-5.052246l-1.820251,-2.635254c-1.86137,2.805237 -5.046379,4.658752 -8.657749,4.658752" id="path396"/>
  </g>
 </g>
</svg>