<svg width="80" height="80" xmlns="http://www.w3.org/2000/svg">
 <metadata id="metadata8">image/svg+xml</metadata>
 <defs>
  <clipPath id="clipPath312" clipPathUnits="userSpaceOnUse">
   <path id="path314" d="m1230.692383,60.855648l-351.549011,0c0.620972,2.589813 1.289001,5.269505 1.976013,7.960896l0.605957,2.328102c10.558044,4.66021 15.675049,12.793007 33.504028,12.793007c24.945007,0 24.945007,-15.972595 49.893982,-15.972595c24.938049,0 24.938049,15.972595 49.869019,15.972595c24.929993,0 24.929993,-15.972595 49.870056,-15.972595c24.929932,0 24.929932,15.972595 49.859985,15.972595c24.929932,0 24.929932,-15.972595 49.849976,-15.972595c24.939941,0 24.939941,15.972595 49.859985,15.972595c4.75,0 8.589966,-0.582001 11.869995,-1.519508l0.52002,-2.453079c1.140015,-5.527412 2.459961,-12 3.869995,-19.109417"/>
  </clipPath>
  <clipPath id="clipPath330" clipPathUnits="userSpaceOnUse">
   <path id="path332" d="m1251.442383,60.855648l-12.869995,0c-1.319946,6.699207 -2.569946,12.890598 -3.690063,18.320301l9.180054,-4.460899c0,0 3.040039,-4.699295 7.380005,-13.859409"/>
  </clipPath>
 </defs>
 <g>
  <title>Layer 1</title>
  <g id="liability">
   <path fill="#efede2" fill-rule="nonzero" d="m62.592819,79.545013l-45.64163,0c-9.323249,0 -16.951189,-7.628754 -16.951189,-16.951244l0,-45.642509c0,-9.32251 7.62794,-16.95126 16.951189,-16.95126l45.64163,0c9.323753,0 16.951622,7.62875 16.951622,16.95126l0,45.642509c0,9.322491 -7.627876,16.951244 -16.951622,16.951244" id="path46"/>
   <path fill="#dcd8c1" fill-rule="nonzero" d="m50.239693,75.950005l-28.961884,0c-1.058119,0 -1.92375,-0.866249 -1.92375,-1.923759c0,-1.058739 0.865631,-1.923752 1.92375,-1.923752l28.961884,0c1.058117,0 1.92387,0.865013 1.92387,1.923752c0,1.05751 -0.865753,1.923759 -1.92387,1.923759" id="path48"/>
   <path fill="#515b5f" fill-rule="nonzero" d="m40.02544,61.791264c-0.820877,0 -1.486378,-0.665001 -1.486378,-1.486275l0,-56.187469c0,-0.82127 0.665501,-1.48628 1.486378,-1.48628c0.820251,0 1.485752,0.66502 1.485752,1.48628l0,56.187469c0,0.821274 -0.665501,1.486275 -1.485752,1.486275" id="path50"/>
   <path fill="#1f2526" fill-rule="nonzero" d="m27.597189,61.804996c0.820751,0 1.485882,0.665001 1.485882,1.486275l0,2.509983c0,2.606247 2.120987,4.727493 4.728003,4.727493c2.606869,0 4.727997,-2.121246 4.727997,-4.727493l0,-5.102497l2.97213,0l0,5.102497c0,4.24501 -3.453999,7.700012 -7.700119,7.700012c-4.24563,0 -7.700251,-3.455009 -7.700251,-7.700012l0,-2.509983c0,-0.821274 0.665501,-1.486275 1.48637,-1.486275" id="path52"/>
   <path fill="#3874c3" fill-rule="nonzero" d="m73.146439,28.542511c-0.17775,-0.837502 -0.40625,-1.66124 -0.681618,-2.470001c-0.965256,-2.83375 -2.514626,-5.48374 -4.540001,-7.866249c-0.289505,-0.34 -0.588379,-0.675011 -0.896996,-1.00502c-0.616623,-0.657501 -1.2715,-1.2925 -1.960884,-1.903721c-1.034248,-0.91625 -2.147499,-1.775019 -3.331116,-2.572519c-5.918003,-3.98377 -13.594753,-6.39752 -21.963875,-6.39752c3.38187,0 6.483883,3.123779 8.875,8.27751c0.4785,1.031271 0.928253,2.143749 1.346252,3.328741c0.278748,0.79002 0.542999,1.61125 0.7925,2.463758c0.1245,0.425001 0.245499,0.858761 0.362251,1.29875c0.818378,3.0825 1.44437,6.51125 1.834499,10.177502c0.042007,0.394989 0.078629,0.796261 0.11525,1.196247c0.318871,-0.158749 0.644501,-0.351257 0.974121,-0.558758c2.90625,-1.554989 7.250999,-2.922501 11.28363,-2.922501c4.520485,0 6.545502,0.87751 8.170868,1.50251c-0.074623,-0.861259 -0.202118,-1.71125 -0.379883,-2.548748" id="path54"/>
   <path fill="#66b1e5" fill-rule="nonzero" d="m28.396441,21.696251c0.584499,-2.201231 1.26712,-4.226261 2.03175,-6.033741c2.447752,-5.78125 5.736872,-9.33502 9.343752,-9.33502c-8.926752,0 -17.065882,2.746281 -23.123503,7.215c-1.89263,1.397511 -3.5825,2.961269 -5.029248,4.663771c-2.0255,2.382509 -3.574751,5.032499 -4.539631,7.866249c-0.27588,0.80875 -0.50387,1.6325 -0.68161,2.470001c-0.17774,0.837498 -0.30518,1.687489 -0.38038,2.548748c1.62549,-0.625 3.650361,-1.50251 8.170859,-1.50251c4.033251,0 8.377501,1.367512 11.28425,2.922501c0.3295,0.2075 0.655752,0.401272 0.974119,0.558762c0.036621,-0.39999 0.07275,-0.801262 0.11525,-1.196251c0.389622,-3.666248 1.015633,-7.09499 1.83437,-10.1775" id="path56"/>
   <path fill="#4691d5" fill-rule="nonzero" d="m51.147942,21.696251c-0.116749,-0.439991 -0.237751,-0.87376 -0.362251,-1.29875c-0.2495,-0.85251 -0.51376,-1.67374 -0.7925,-2.46376c-0.417999,-1.185001 -0.867748,-2.29748 -1.346249,-3.328741c-2.391121,-5.153728 -5.49313,-8.27751 -8.875,-8.27751c-3.60688,0 -6.896,3.55377 -9.343752,9.33502c-0.764629,1.80748 -1.44725,3.83251 -2.03175,6.033741c-0.818752,3.082499 -1.444752,6.51125 -1.83437,10.177498c-0.0425,0.394993 -0.078632,0.796261 -0.11525,1.196251c2.279247,-0.750011 4.236248,-1.52 6.623999,-2.04874c1.85738,-0.411259 3.97562,-0.67625 6.70113,-0.67625c3.115253,0 5.437,0.346241 7.482502,0.86124c2.04538,0.514999 3.81488,1.19875 5.82563,1.873741c-0.019001,-0.409981 -0.055622,-0.811249 -0.09763,-1.206249c-0.390121,-3.666252 -1.016121,-7.094992 -1.834499,-10.177502" id="path58"/>
   <path fill="#ef268b" fill-rule="nonzero" d="m36.33007,47.268742c0,7.238747 -5.868631,13.107491 -13.107882,13.107491c-7.238749,0 -13.1075,-5.868744 -13.1075,-13.107491c0,-7.23875 5.868752,-13.10751 13.1075,-13.10751c7.23925,0 13.107882,5.868759 13.107882,13.10751" id="path60"/>
   <path fill="#efede2" fill-rule="nonzero" d="m16.93944,45.205009c0.438,0.84375 1.123499,1.530003 1.935999,1.931252c0.631882,0.316257 3.682621,1.685009 5.151381,2.341248l0.72662,0.326252c0.638121,0.290009 1.153751,0.69376 1.376869,1.081261c0.39513,0.672489 0.219749,1.602497 -0.385248,2.06625c-0.467751,0.358749 -1.17725,0.547501 -2.058001,0.547501c-0.78525,0 -1.7085,-0.152512 -2.535749,-0.420021c-0.48925,-0.158749 -1.19425,-0.54998 -1.637131,-0.914989l-0.189499,-0.168739l-0.033121,-0.032501l-0.105,-0.135002c-0.227619,-0.34 -0.57913,-0.524998 -0.99275,-0.524998c-0.7045,0 -1.38575,0.5275 -1.691879,1.049999c-0.272501,0.46249 -0.285631,0.94376 -0.03763,1.314999c0.99375,1.495003 3.140629,2.342491 5.26763,2.647503l0,1.623749c0,0.246239 0.216749,0.447487 0.4795,0.447487l1.636749,0c0.263121,0 0.476,-0.201248 0.476,-0.447487l0,-1.51376c1.702129,-0.112499 3.15337,-0.586239 4.05275,-1.33625c1.57037,-1.316242 2.170879,-3.32375 1.523003,-5.12125c-0.706623,-1.971241 -3.521,-3.068741 -5.578121,-3.868752l-0.3335,-0.12999c-0.670881,-0.293751 -1.661131,-0.69376 -1.95513,-0.812508l-0.134251,-0.054993c-0.71875,-0.31126 -1.193371,-0.518757 -1.549881,-1.067497c-0.42375,-0.657501 -0.31975,-1.630001 0.224621,-2.0825c0.838381,-0.700001 1.82725,-0.847492 2.508869,-0.847492c0.536131,0 1.09963,0.092491 1.63475,0.259991c0.464371,0.1525 1.188,0.62376 1.661619,1.012501l0.188,0.168758l0.053131,0.056252l0.085499,0.110001c0.22612,0.34124 0.578621,0.52626 0.995121,0.52626c0.703129,0 1.38475,-0.52626 1.69088,-1.05125c0.2705,-0.459991 0.285629,-0.940002 0.035629,-1.316261c-0.751877,-1.131241 -2.470627,-2.068741 -3.782629,-2.411251c-0.426249,-0.109989 -0.86825,-0.182499 -1.32037,-0.231239l0,-1.62875c0,-0.24876 -0.212879,-0.447491 -0.476,-0.447491l-1.636749,0c-0.262751,0 -0.4795,0.198753 -0.4795,0.447491l0,1.682491c-1.469751,0.233768 -2.77,0.805 -3.69725,1.647518c-1.561001,1.416241 -2.0005,3.53624 -1.095251,5.27623" id="path62"/>
   <path fill="#ef268b" fill-rule="nonzero" d="m60.827194,43.888752c0,4.727497 -3.832504,8.560009 -8.560635,8.560009c-4.727497,0 -8.559998,-3.832512 -8.559998,-8.560009c0,-4.727501 3.8325,-8.55999 8.559998,-8.55999c4.728123,0 8.560635,3.832489 8.560635,8.55999" id="path64"/>
   <path fill="#efede2" fill-rule="nonzero" d="m48.164063,42.541241c0.285629,0.551239 0.733379,0.998741 1.26413,1.26125c0.412121,0.206242 2.404869,1.099991 3.36425,1.52874l0.474117,0.212502c0.417004,0.19001 0.753502,0.453758 0.899502,0.706249c0.257751,0.44001 0.143501,1.046261 -0.251499,1.349998c-0.30563,0.233749 -0.769001,0.357491 -1.34425,0.357491c-0.512753,0 -1.115749,-0.099998 -1.65575,-0.275002c-0.319881,-0.103737 -0.780251,-0.358749 -1.069881,-0.5975l-0.123501,-0.109997l-0.0215,-0.021252l-0.068871,-0.087509c-0.148376,-0.222492 -0.377869,-0.343742 -0.647869,-0.343742c-0.460499,0 -0.905251,0.345001 -1.105,0.686241c-0.178249,0.302509 -0.186501,0.616249 -0.02438,0.858749c0.64838,0.976261 2.050751,1.530003 3.43988,1.730022l0,1.05999c0,0.160007 0.141621,0.291248 0.313,0.291248l1.068878,0c0.171883,0 0.311001,-0.131241 0.311001,-0.291248l0,-0.98875c1.11187,-0.073742 2.05912,-0.3825 2.646999,-0.873741c1.025383,-0.858761 1.417503,-2.168751 0.994633,-3.34375c-0.46138,-1.287498 -2.29987,-2.00375 -3.64312,-2.526249l-0.217751,-0.085011c-0.438,-0.19249 -1.084881,-0.453739 -1.276871,-0.529991l-0.087879,-0.036259c-0.46925,-0.203739 -0.779251,-0.338749 -1.011749,-0.697502c-0.277252,-0.429989 -0.20887,-1.064987 0.1465,-1.359997c0.547379,-0.4575 1.192879,-0.553741 1.638748,-0.553741c0.350132,0 0.717751,0.05999 1.067379,0.169998c0.303253,0.098743 0.775883,0.407494 1.084881,0.661243l0.123119,0.109997l0.03463,0.037502l0.055752,0.071259c0.147869,0.222492 0.377869,0.343742 0.649868,0.343742c0.459003,0 0.904251,-0.343742 1.104504,-0.686241c0.176746,-0.30125 0.186497,-0.615009 0.023369,-0.860001c-0.491249,-0.738739 -1.61375,-1.351238 -2.470631,-1.574989c-0.27837,-0.071262 -0.567001,-0.118752 -0.86237,-0.151249l0,-1.063751c0,-0.16251 -0.139122,-0.291252 -0.311001,-0.291252l-1.068878,0c-0.171371,0 -0.313,0.12875 -0.313,0.291252l0,1.098751c-0.960003,0.152489 -1.80912,0.52626 -2.414501,1.07626c-1.01963,0.924988 -1.306629,2.30999 -0.71487,3.446239" id="path66"/>
   <path fill="#ef268b" fill-rule="nonzero" d="m59.427689,62.077488c0,3.956249 -3.205997,7.161251 -7.161118,7.161251c-3.954498,0 -7.160629,-3.205002 -7.160629,-7.161251c0,-3.953758 3.206131,-7.159988 7.160629,-7.159988c3.95512,0 7.161118,3.20623 7.161118,7.159988" id="path68"/>
   <path fill="#efede2" fill-rule="nonzero" d="m48.834442,60.95126c0.23875,0.459991 0.61375,0.836258 1.057621,1.055008c0.345249,0.172501 2.011749,0.919991 2.814499,1.278755l0.3965,0.177498c0.349121,0.158737 0.630379,0.379997 0.75238,0.591267c0.21587,0.367477 0.120121,0.875 -0.210381,1.128746c-0.255371,0.196236 -0.64312,0.299988 -1.1245,0.299988c-0.428749,0 -0.933121,-0.084984 -1.38525,-0.229996c-0.26712,-0.087509 -0.65237,-0.300003 -0.894619,-0.500015l-0.1035,-0.092476l-0.018002,-0.017509l-0.057129,-0.073769c-0.124619,-0.186234 -0.316502,-0.286224 -0.5425,-0.286224c-0.38475,0 -0.75737,0.287491 -0.924381,0.573746c-0.148869,0.252487 -0.15625,0.514984 -0.0205,0.717499c0.542999,0.816238 1.715881,1.279999 2.87801,1.447495l0,0.886253c0,0.135002 0.118622,0.243759 0.26162,0.243759l0.894131,0c0.144001,0 0.26025,-0.108757 0.26025,-0.243759l0,-0.827507c0.93013,-0.060013 1.72263,-0.318741 2.214382,-0.730011c0.857868,-0.71875 1.185997,-1.81498 0.831997,-2.797489c-0.38575,-1.077499 -1.923878,-1.676247 -3.047878,-2.112495l-0.182129,-0.072495c-0.366253,-0.160004 -0.907749,-0.378754 -1.067871,-0.443756l-0.07375,-0.028748c-0.392502,-0.171242 -0.651882,-0.283752 -0.84613,-0.585007c-0.231998,-0.358757 -0.17487,-0.888748 0.122501,-1.136246c0.458,-0.383759 0.997997,-0.463753 1.370617,-0.463753c0.293003,0 0.60112,0.050011 0.893002,0.142494c0.253502,0.082504 0.648998,0.339996 0.907749,0.552505l0.103001,0.092514l0.028881,0.031235l0.046879,0.060013c0.123501,0.186249 0.31588,0.287491 0.543499,0.287491c0.384251,0 0.756252,-0.287491 0.923752,-0.574989c0.147999,-0.251251 0.15625,-0.513763 0.019501,-0.718773c-0.410622,-0.617485 -1.349991,-1.12999 -2.066372,-1.317474c-0.232868,-0.060013 -0.474621,-0.100006 -0.72163,-0.126274l0,-0.88998c0,-0.136261 -0.116249,-0.244999 -0.26025,-0.244999l-0.894131,0c-0.142998,0 -0.26162,0.108738 -0.26162,0.244999l0,0.918751c-0.803249,0.128754 -1.513748,0.441254 -2.02013,0.901253c-0.852997,0.77375 -1.092747,1.931236 -0.598129,2.8825" id="path70"/>
  </g>
 </g>
</svg>