<svg width="80" height="80" xmlns="http://www.w3.org/2000/svg">
 <metadata id="metadata8">image/svg+xml</metadata>
 <defs>
  <clipPath id="clipPath312" clipPathUnits="userSpaceOnUse">
   <path id="path314" d="m1224.694824,53.851898l-351.549011,0c0.620972,2.589813 1.289001,5.269505 1.976013,7.960896l0.605957,2.328106c10.558044,4.66021 15.675049,12.793007 33.504028,12.793007c24.945007,0 24.945007,-15.972599 49.893982,-15.972599c24.938049,0 24.938049,15.972599 49.869019,15.972599c24.929993,0 24.929993,-15.972599 49.870056,-15.972599c24.929932,0 24.929932,15.972599 49.859985,15.972599c24.929932,0 24.929932,-15.972599 49.849976,-15.972599c24.939941,0 24.939941,15.972599 49.859985,15.972599c4.75,0 8.589966,-0.582008 11.869995,-1.519516l0.52002,-2.453072c1.140015,-5.52742 2.459961,-12.000004 3.869995,-19.109421"/>
  </clipPath>
  <clipPath id="clipPath330" clipPathUnits="userSpaceOnUse">
   <path id="path332" d="m1245.444824,53.851898l-12.869995,0c-1.319946,6.699207 -2.569946,12.890602 -3.690063,18.320305l9.180054,-4.460907c0,0 3.040039,-4.699291 7.380005,-13.859406"/>
  </clipPath>
 </defs>
 <g>
  <title>Layer 1</title>
  <g id="life">
   <path fill="#efede2" fill-rule="nonzero" d="m62.593254,79.545013l-45.641624,0c-9.323616,0 -16.95163,-7.628754 -16.95163,-16.951244l0,-45.642509c0,-9.32251 7.628014,-16.95126 16.95163,-16.95126l45.641624,0c9.323746,0 16.951248,7.62875 16.951248,16.95126l0,45.642509c0,9.322491 -7.627502,16.951244 -16.951248,16.951244" id="path72"/>
   <path fill="#dcd8c1" fill-rule="nonzero" d="m54.437004,75.950005l-30.980515,0c-1.057991,0 -1.923752,-0.866249 -1.923752,-1.923759c0,-1.058739 0.865761,-1.923752 1.923752,-1.923752l30.980515,0c1.058746,0 1.925003,0.865013 1.925003,1.923752c0,1.05751 -0.866272,1.923759 -1.925003,1.923759" id="path74"/>
   <path fill="#515b5f" fill-rule="nonzero" d="m40.025749,61.791264c-0.821243,0 -1.486252,-0.665001 -1.486252,-1.486275l0,-56.187469c0,-0.82127 0.665009,-1.48628 1.486252,-1.48628c0.819992,0 1.486252,0.66502 1.486252,1.48628l0,56.187469c0,0.821274 -0.66626,1.486275 -1.486252,1.486275" id="path76"/>
   <path fill="#594b5a" fill-rule="nonzero" d="m32.018257,41.433739c2.233734,0 4.043747,-1.81126 4.043747,-4.043747c0,-2.233753 -1.809998,-4.043751 -4.043747,-4.043751c-2.232628,0 -4.043625,1.809998 -4.043625,4.043751c0,2.232487 1.810997,4.043747 4.043625,4.043747" id="path78"/>
   <path fill="#efede2" fill-rule="nonzero" d="m32.018257,31.910011c-3.021126,0 -5.479637,2.4575 -5.479637,5.48c0,3.021259 2.458496,5.47998 5.479637,5.47998c3.02124,0 5.479996,-2.45874 5.479996,-5.47998c0,-3.022499 -2.458755,-5.48 -5.479996,-5.48zm0,1.436249c2.233734,0 4.043747,1.810001 4.043747,4.043751c0,2.232491 -1.809998,4.043751 -4.043747,4.043751c-2.232628,0 -4.043625,-1.81126 -4.043625,-4.043751c0,-2.233749 1.810997,-4.043751 4.043625,-4.043751" id="path80"/>
   <path fill="#594b5a" fill-rule="nonzero" d="m46.939507,42.889999c2.027496,0 3.671249,-1.643749 3.671249,-3.671249c0,-2.027512 -1.643753,-3.671261 -3.671249,-3.671261c-2.02626,0 -3.671249,1.643749 -3.671249,3.671261c0,2.027489 1.644989,3.671249 3.671249,3.671249" id="path82"/>
   <path fill="#efede2" fill-rule="nonzero" d="m46.939507,34.111259c-2.816254,0 -5.107498,2.29126 -5.107498,5.107502c0,2.816257 2.291245,5.106258 5.107498,5.106258c2.816238,0 5.107498,-2.290001 5.107498,-5.106258c0,-2.816242 -2.29126,-5.107502 -5.107498,-5.107502zm0,1.436253c2.027496,0 3.671249,1.643749 3.671249,3.671249c0,2.027508 -1.643753,3.671257 -3.671249,3.671257c-2.02626,0 -3.671249,-1.643749 -3.671249,-3.671257c0,-2.027493 1.644989,-3.671249 3.671249,-3.671249" id="path84"/>
   <path fill="#594b5a" fill-rule="nonzero" d="m35.45826,47.692501l-0.075012,0.2775l-0.021255,-0.302509l0.096268,0.025009zm19.551239,8.49501c-0.456238,-2.147503 -1.599991,-6.03001 -1.910004,-7.40749c-0.229996,-1.02375 -0.597488,-1.848751 -1.044998,-2.493763c-0.671249,-0.9725 -1.517502,-1.513748 -2.199997,-1.774998c-0.178741,-0.068741 -0.345001,-0.12125 -0.498749,-0.160011c-0.264999,-0.08625 -0.538757,-0.143738 -0.831253,-0.143738l-3.169998,0c-0.303757,0 -0.589996,0.0625 -0.863754,0.153748c-0.341248,0.091251 -0.751236,0.2425 -1.191238,0.509991c-0.501251,0.307499 -1.027512,0.768761 -1.473755,1.415001c-0.449997,0.645008 -0.814987,1.470009 -1.044998,2.493759c-0.163742,0.726238 -0.559982,2.151241 -0.96376,3.650002c-0.068741,-0.678753 -0.148727,-1.391262 -0.243729,-2.085003c-0.127502,-0.928761 -0.277512,-1.82251 -0.46875,-2.595009c-0.287521,-1.160011 -0.816254,-2.10001 -1.452499,-2.802509c-0.477493,-0.528759 -1.006271,-0.923752 -1.52124,-1.213741c-0.772522,-0.436249 -1.511261,-0.642509 -2.06752,-0.750008c-0.143753,-0.026253 -0.27623,-0.047493 -0.392502,-0.0625c-0.226257,-0.054993 -0.460007,-0.08625 -0.702499,-0.08625l-3.298744,0c-0.245621,0 -0.482491,0.032497 -0.710487,0.087509c-0.473122,0.061241 -1.165001,0.204998 -1.944885,0.552498c-0.666,0.30125 -1.393005,0.767502 -2.028236,1.472492c-0.637749,0.702499 -1.166,1.64249 -1.453133,2.802509c-0.192368,0.772499 -0.341866,1.666241 -0.469742,2.595009c-0.379379,2.77874 -0.536629,5.863743 -0.537125,5.884991c-0.042999,0.823753 0.590378,1.52626 1.412628,1.568764c0.823753,0.041237 1.524872,-0.591263 1.568367,-1.413754c0,-0.001259 0.003372,-0.078751 0.013634,-0.230011c0.029366,-0.5275 0.118118,-1.901249 0.268997,-3.425007c0.076241,-0.760002 0.168503,-1.558743 0.277374,-2.30249c0.106987,-0.743752 0.227127,-1.490002 0.42775,-1.98999c0.308121,-0.761261 0.544868,-0.605011 0.780251,-0.761261l-0.55513,8.1175c0,0.123749 0.010246,0.244999 0.024864,0.366249l-0.014626,0.147499l0,14.983746c0,1.050018 0.850121,1.898773 1.899376,1.898773c1.049385,0 1.900131,-0.848755 1.900131,-1.898773l0,-12.549984l1.577499,0l0,12.549984c0,1.050018 0.851242,1.898773 1.901245,1.898773l10.736252,0c0.743759,-0.007507 1.345001,-0.611267 1.345001,-1.357513l0,-9.992481l1.699997,0l0,9.992481c0,0.750015 0.607513,1.357513 1.357513,1.357513c0.748749,0 1.356247,-0.607513 1.356247,-1.357513l0,-9.992481l0.052505,-0.002502l1.897507,0c-0.471252,-6.51125 -3.22374,-9.872509 -2.68251,-12.177502c0.16626,-0.70499 0.340012,-1.216259 0.507523,-1.593758c0.166229,0.320007 0.319977,0.727497 0.438736,1.25c0.300003,1.33625 1.442505,5.211258 1.903763,7.380009c0.139999,0.661263 0.789978,1.080002 1.447479,0.940002c0.661255,-0.139999 1.081253,-0.788754 0.941254,-1.448753" id="path86"/>
   <path fill="#efede2" fill-rule="nonzero" d="m23.863747,59.23251l0.152374,0.003754c0.457497,0 0.891129,-0.105003 1.277878,-0.292511l0,11.226261l1.436005,0l0,-13.862503l0.014626,-0.147499c-0.014626,-0.12125 -0.024872,-0.2425 -0.024872,-0.366253l0.55513,-8.117496c-0.235374,0.15625 -0.47213,0 -0.780251,0.761238c-0.200615,0.500011 -0.320755,1.246262 -0.42775,1.990009c-0.108879,0.743752 -0.201126,1.542492 -0.277367,2.30249c-0.150894,1.523739 -0.239632,2.897491 -0.268997,3.425011c-0.010254,0.15123 -0.013634,0.228748 -0.013634,0.229988c-0.042007,0.796265 -0.701248,1.415001 -1.490753,1.415001l-0.077614,-0.001259c-0.82225,-0.042503 -1.455635,-0.745003 -1.412636,-1.568741c0.000504,-0.021248 0.157753,-3.106251 0.537132,-5.88501c0.127869,-0.928749 0.277374,-1.822491 0.469742,-2.59499c0.287132,-1.160011 0.815376,-2.10001 1.453133,-2.802509c0.635239,-0.705009 1.362236,-1.171249 2.028236,-1.472511c0.779877,-0.3475 1.471748,-0.491238 1.944878,-0.552498c0.228004,-0.054993 0.464874,-0.08749 0.710495,-0.08749l3.298737,0c0.242508,0 0.476257,0.031239 0.702515,0.08625c0.116257,0.014988 0.248749,0.03624 0.392487,0.0625c0.556259,0.107498 1.295013,0.31374 2.06752,0.749989c0.514984,0.290009 1.043747,0.685009 1.52124,1.21376c0.636246,0.702499 1.164993,1.64249 1.452499,2.802509c0.191254,0.772499 0.341248,1.666241 0.46875,2.59499c0.095001,0.69376 0.175003,1.40625 0.243744,2.084999c0.403763,-1.498737 0.800003,-2.92374 0.963745,-3.649998c0.230011,-1.02375 0.595016,-1.848751 1.045013,-2.49374c0.446243,-0.646252 0.972504,-1.107502 1.47374,-1.415001c0.440018,-0.267509 0.850006,-0.418739 1.191254,-0.51001c0.273758,-0.091251 0.559998,-0.153751 0.863739,-0.153751l3.169998,0c0.292511,0 0.566254,0.05751 0.831253,0.143761c0.153748,0.038761 0.320007,0.091251 0.498749,0.160011c0.68251,0.26125 1.528763,0.802498 2.200012,1.774998c0.447479,0.644993 0.814987,1.46999 1.044998,2.49374c0.309998,1.37751 1.453766,5.26001 1.909988,7.407513c0.139999,0.66 -0.279999,1.308739 -0.941238,1.448738l-0.25499,0.027504c-0.563751,0 -1.070023,-0.392517 -1.192505,-0.967503c-0.461243,-2.168751 -1.603745,-6.043762 -1.903748,-7.380013c-0.118759,-0.522499 -0.272507,-0.929996 -0.438751,-1.25c-0.167496,0.377502 -0.341248,0.888752 -0.507507,1.593761c-0.541245,2.304989 2.211258,5.666241 2.68251,12.177483l-1.600021,0l-0.146255,-0.006233l-0.151245,0.006233l-0.052505,0.002495l0,8.330006l1.436249,0l0,-6.897495l2.05751,0l-0.111252,-1.53875c-0.068771,-0.941261 -0.18251,-1.823746 -0.326248,-2.646255l0.253738,0.012489c0.184998,0 0.372482,-0.019989 0.554993,-0.058754c1.429993,-0.302505 2.348755,-1.714989 2.046249,-3.149998c-0.274994,-1.29623 -0.777496,-3.146252 -1.220001,-4.777489c-0.293747,-1.083763 -0.572479,-2.10751 -0.693741,-2.64999c-0.258759,-1.148762 -0.684998,-2.15752 -1.267502,-2.99625c-0.722488,-1.049999 -1.741257,-1.866253 -2.865005,-2.296261c-0.207489,-0.07999 -0.414993,-0.147499 -0.616257,-0.200001c-0.426239,-0.134998 -0.828751,-0.19875 -1.227493,-0.19875l-3.169998,0c-0.413742,0 -0.832504,0.06876 -1.27626,0.21376c-0.532486,0.146259 -1.044998,0.367489 -1.522491,0.656239c-0.740005,0.455002 -1.399994,1.085003 -1.912506,1.828751c-0.181244,0.26001 -0.347504,0.53751 -0.498734,0.8325c-0.346252,-0.872501 -0.831253,-1.66124 -1.428757,-2.319981c-0.532501,-0.592518 -1.16626,-1.097507 -1.878754,-1.500019c-0.764999,-0.431252 -1.606247,-0.737499 -2.501251,-0.91c-0.148743,-0.0275 -0.283752,-0.049992 -0.407486,-0.066242c-0.321259,-0.072498 -0.643753,-0.108757 -0.960022,-0.108757l-3.298737,0c-0.317001,0 -0.642113,0.036259 -0.968742,0.110001c-0.775002,0.107498 -1.539116,0.327507 -2.272499,0.656258c-0.973633,0.439991 -1.81588,1.05249 -2.508751,1.821251c-0.838867,0.923748 -1.455627,2.107491 -1.780876,3.418751c-0.183006,0.73624 -0.341263,1.60873 -0.498505,2.7425c-0.370621,2.71624 -0.529747,5.64999 -0.547867,6.008739c-0.084,1.612511 1.159256,2.992493 2.7715,3.076248" id="path88"/>
   <path fill="#efede2" fill-rule="nonzero" d="m30.529503,70.170013l1.577637,0l0,-11.428226l-1.577637,0l0,11.428226z" id="path90"/>
   <path fill="#efede2" fill-rule="nonzero" d="m46.0895,70.170013l1.700195,0l0,-8.329586l-1.700195,0l0,8.329586z" id="path92"/>
   <path fill="#ffffff" fill-rule="nonzero" d="m39.105751,56.306259c1.461243,0 2.644989,-1.184998 2.644989,-2.645c0,-1.461258 -1.183746,-2.646259 -2.644989,-2.646259c-1.461243,0 -2.645004,1.185001 -2.645004,2.646259c0,1.460003 1.183762,2.645 2.645004,2.645" id="path94"/>
   <path fill="#ffffff" fill-rule="nonzero" d="m44.689491,64.418739l-0.464996,-4.50375l-0.012512,-0.080017c-0.30249,-1.636246 -1.559998,-2.781235 -3.054977,-2.781235l-1.043762,0l-0.042496,0.005005l-1.929993,0l-0.042511,-0.005005l-1.043747,0c-1.496262,0 -2.752502,1.145004 -3.056244,2.781235l-0.011246,0.080017l-0.465012,4.50375c-0.05751,0.555008 0.345001,1.049995 0.900009,1.107498l0.104996,0.006248c0.51001,0 0.948746,-0.386246 1.002502,-0.904999l0.461243,-4.459995c0.073761,-0.368752 0.236252,-0.65876 0.451248,-0.850014l-0.345001,5.722507l0.016251,0.239998l-0.008759,0.095001l0,6.883759c0,0.687485 0.556244,1.242493 1.242508,1.242493c0.686234,0 1.242493,-0.554993 1.242493,-1.242493l0,-6.222519l1.032501,0l0,6.222519c0,0.687485 0.556259,1.242493 1.243744,1.242493c0.685013,0 1.241257,-0.554993 1.241257,-1.242493l0,-6.883759l-0.008759,-0.095001l0.014999,-0.239998l-0.342499,-5.721249c0.21376,0.189995 0.375,0.481255 0.449997,0.848755l0.461258,4.459995c0.053772,0.518753 0.491241,0.904999 1.002502,0.904999l0.105011,-0.006248c0.555008,-0.057503 0.957489,-0.55249 0.899979,-1.107498" id="path96"/>
   <path fill="#3874c3" fill-rule="nonzero" d="m73.147011,28.542511c-0.178772,-0.837502 -0.40625,-1.66124 -0.68251,-2.470001c-0.965012,-2.83375 -2.513748,-5.48374 -4.540009,-7.866249c-0.288742,-0.34 -0.587494,-0.675011 -0.89624,-1.00502c-0.617508,-0.657501 -1.271255,-1.2925 -1.961258,-1.903721c-1.033737,-0.91625 -2.147491,-1.775019 -3.331253,-2.572519c-5.91748,-3.98377 -13.594986,-6.39752 -21.963745,-6.39752c3.382507,0 6.483749,3.123779 8.875,8.27751c0.47876,1.031271 0.928757,2.143749 1.346237,3.328741c0.278763,0.79002 0.543762,1.61125 0.792511,2.463758c0.124985,0.425001 0.24501,0.858761 0.362503,1.29875c0.818741,3.0825 1.444992,6.51125 1.834991,10.177502c0.041245,0.394989 0.077499,0.796261 0.11499,1.196247c0.318756,-0.158749 0.643753,-0.351257 0.973755,-0.558758c2.90625,-1.554989 7.251251,-2.922501 11.283752,-2.922501c4.521255,0 6.544968,0.87751 8.171249,1.50251c-0.075012,-0.861259 -0.202499,-1.71125 -0.37999,-2.548748" id="path98"/>
   <path fill="#66b1e5" fill-rule="nonzero" d="m28.396507,21.696251c0.584503,-2.201231 1.267113,-4.226261 2.031746,-6.033741c2.447502,-5.78125 5.737495,-9.33502 9.343742,-9.33502c-8.926247,0 -17.065857,2.746281 -23.123116,7.215c-1.893013,1.397511 -3.582489,2.961269 -5.029243,4.663771c-2.025375,2.382509 -3.574745,5.032499 -4.540009,7.866249c-0.275368,0.80875 -0.503502,1.6325 -0.681122,2.470001c-0.178246,0.837498 -0.305748,1.687489 -0.380363,2.548748c1.625496,-0.625 3.650368,-1.50251 8.170868,-1.50251c4.032753,0 8.37738,1.367512 11.28363,2.922501c0.330116,0.2075 0.65625,0.401272 0.974129,0.558762c0.036621,-0.39999 0.073242,-0.801262 0.115242,-1.196251c0.390129,-3.666248 1.016129,-7.09499 1.834511,-10.1775" id="path100"/>
   <path fill="#4691d5" fill-rule="nonzero" d="m51.148262,21.696251c-0.117508,-0.439991 -0.237518,-0.87376 -0.362503,-1.29875c-0.248764,-0.85251 -0.513763,-1.67374 -0.792511,-2.46376c-0.417496,-1.185001 -0.867493,-2.29748 -1.346252,-3.328741c-2.391251,-5.153728 -5.492493,-8.27751 -8.875,-8.27751c-3.606247,0 -6.89624,3.55377 -9.343742,9.33502c-0.764633,1.80748 -1.447243,3.83251 -2.031746,6.033741c-0.818375,3.082499 -1.444374,6.51125 -1.834511,10.177498c-0.042,0.394993 -0.078613,0.796261 -0.115234,1.196251c2.279877,-0.750011 4.236496,-1.52 6.623985,-2.04874c1.857498,-0.411259 3.976257,-0.67625 6.701248,-0.67625c3.115021,0 5.4375,0.346241 7.482498,0.86124c2.046249,0.514999 3.815002,1.19875 5.826263,1.873741c-0.020004,-0.409981 -0.056259,-0.811249 -0.097504,-1.206249c-0.389999,-3.666252 -1.016251,-7.094992 -1.834976,-10.177502" id="path102"/>
  </g>
 </g>
</svg>