<svg width="80" height="80" xmlns="http://www.w3.org/2000/svg">
 <metadata id="metadata8">image/svg+xml</metadata>
 <defs>
  <clipPath id="clipPath312" clipPathUnits="userSpaceOnUse">
   <path id="path314" d="m1141.544434,-200.910477l-351.549011,0c0.620972,2.589813 1.289001,5.269516 1.976013,7.960907l0.605957,2.32811c10.558044,4.660187 15.675049,12.792999 33.504028,12.792999c24.945007,0 24.945007,-15.972595 49.893982,-15.972595c24.938049,0 24.938049,15.972595 49.869019,15.972595c24.929993,0 24.929993,-15.972595 49.870056,-15.972595c24.929932,0 24.929932,15.972595 49.859985,15.972595c24.929932,0 24.929932,-15.972595 49.849976,-15.972595c24.939941,0 24.939941,15.972595 49.859985,15.972595c4.75,0 8.589966,-0.582001 11.869995,-1.519501l0.52002,-2.453094c1.140015,-5.527405 2.459961,-12 3.869995,-19.109421"/>
  </clipPath>
  <clipPath id="clipPath330" clipPathUnits="userSpaceOnUse">
   <path id="path332" d="m1162.294434,-200.910477l-12.869995,0c-1.319946,6.699203 -2.569946,12.89061 -3.690063,18.320313l9.180054,-4.460892c0,0 3.040039,-4.69931 7.380005,-13.859421"/>
  </clipPath>
 </defs>
 <g>
  <title>Layer 1</title>
  <g id="travel">
   <path fill="#efede2" fill-rule="nonzero" d="m62.592499,79.544998l-45.641235,0c-9.323761,0 -16.951263,-7.627502 -16.951263,-16.951248l0,-45.641251c0,-9.323746 7.627502,-16.952499 16.951263,-16.952499l45.641235,0c9.32373,0 16.952515,7.628754 16.952515,16.952499l0,45.641251c0,9.323746 -7.628784,16.951248 -16.952515,16.951248" id="path352"/>
   <path fill="#dcd8c1" fill-rule="nonzero" d="m54.253723,75.950012l-28.962494,0c-1.058746,0 -1.923737,-0.865005 -1.923737,-1.923752c0,-1.05751 0.86499,-1.923752 1.923737,-1.923752l28.962494,0c1.057526,0 1.923767,0.866241 1.923767,1.923752c0,1.058746 -0.866241,1.923752 -1.923767,1.923752" id="path354"/>
   <path fill="#515b5f" fill-rule="nonzero" d="m40.024994,61.367508c-0.820007,0 -1.486267,-0.664993 -1.486267,-1.485001l0,-56.188759c0,-0.819984 0.66626,-1.486237 1.486267,-1.486237c0.821228,0 1.486237,0.666252 1.486237,1.486237l0,56.188759c0,0.820007 -0.665009,1.485001 -1.486237,1.485001" id="path356"/>
   <path fill="#1f2526" fill-rule="nonzero" d="m27.597473,61.382507c0.820007,0 1.486267,0.664993 1.486267,1.486282l0,2.508728c0,2.607498 2.119995,4.728745 4.727478,4.728745c2.607513,0 4.727509,-2.121262 4.727509,-4.728745l0,-5.102493l2.972504,0l0,5.102493c0,4.246262 -3.453766,7.699997 -7.700012,7.699997c-4.246246,0 -7.700012,-3.453751 -7.700012,-7.699997l0,-2.508728c0,-0.821274 0.665039,-1.486282 1.486267,-1.486282" id="path358"/>
   <path fill="#3874c3" fill-rule="nonzero" d="m73.14624,28.120003c-0.17749,-0.837494 -0.404999,-1.661263 -0.681274,-2.471252c-0.964996,-2.832512 -2.514984,-5.483742 -4.539978,-7.866249c-0.288727,-0.339996 -0.588745,-0.674995 -0.89624,-1.003746c-0.617493,-0.65876 -1.272522,-1.293755 -1.961273,-1.903763c-1.035004,-0.916252 -2.147461,-1.776237 -3.331207,-2.572487c-5.918762,-3.983757 -13.595001,-6.398766 -21.963745,-6.398766c3.381226,0 6.483704,3.123764 8.874969,8.278763c0.477509,1.031242 0.92749,2.143761 1.346252,3.328758c0.278748,0.78875 0.542511,1.611252 0.792511,2.462502c0.123749,0.426239 0.244995,0.858749 0.361237,1.300003c0.818756,3.081245 1.445007,6.511246 1.834991,10.176247c0.04248,0.396233 0.078766,0.796242 0.115021,1.197487c0.318756,-0.158745 0.644989,-0.351257 0.975006,-0.559998c2.90625,-1.553749 7.25,-2.921257 11.283752,-2.921257c4.519989,0 6.544983,0.876251 8.170013,1.50251c-0.075012,-0.861259 -0.202545,-1.71125 -0.380035,-2.548752" id="path360"/>
   <path fill="#66b1e5" fill-rule="nonzero" d="m28.39624,21.273766c0.584991,-2.202492 1.267487,-4.226242 2.032501,-6.03376c2.44751,-5.782471 5.736237,-9.336235 9.34375,-9.336235c-8.92749,0 -17.066254,2.747505 -23.123749,7.216225c-1.892517,1.396255 -3.58252,2.961258 -5.028748,4.662506c-2.026245,2.382492 -3.575012,5.033737 -4.539978,7.866249c-0.276276,0.810013 -0.503754,1.633759 -0.681274,2.47126c-0.178741,0.837494 -0.306244,1.687515 -0.381256,2.548752c1.626251,-0.626259 3.651276,-1.502487 8.171265,-1.502487c4.032501,0 8.377502,1.367485 11.283722,2.921227c0.330017,0.208763 0.656281,0.401253 0.973785,0.559998c0.037476,-0.401245 0.07373,-0.801247 0.116241,-1.19751c0.389984,-3.664986 1.014984,-7.094986 1.83374,-10.176239" id="path362"/>
   <path fill="#4691d5" fill-rule="nonzero" d="m51.147491,21.273766c-0.116241,-0.441254 -0.237488,-0.873734 -0.361237,-1.299995c-0.25,-0.85125 -0.513763,-1.673759 -0.79248,-2.462502c-0.418762,-1.184998 -0.868774,-2.297493 -1.346283,-3.328735c-2.391266,-5.155029 -5.493713,-8.27877 -8.874969,-8.27877c-3.607513,0 -6.896271,3.553749 -9.343781,9.336243c-0.764984,1.807495 -1.44751,3.831245 -2.032471,6.03376c-0.818756,3.081245 -1.443756,6.511246 -1.833771,10.176239c-0.04248,0.396255 -0.078735,0.796257 -0.116241,1.19751c2.279999,-0.750015 4.236237,-1.521263 6.625,-2.048759c1.857513,-0.41124 3.975006,-0.676254 6.701263,-0.676254c3.11496,0 5.436249,0.34626 7.482483,0.860001c2.044983,0.515022 3.815002,1.198753 5.824982,1.875c-0.018738,-0.41124 -0.054962,-0.811249 -0.097473,-1.207497c-0.390015,-3.664993 -1.016266,-7.094994 -1.835022,-10.176239" id="path364"/>
   <path fill="#594b5a" fill-rule="nonzero" d="m58.486267,54.468765c0.074982,-0.47876 0.434967,-0.886246 0.934998,-1.013748c0.228729,-0.05751 0.362488,-0.116272 0.413757,-0.147522l0.032501,-0.022507c0.002472,-0.003754 0.03125,-0.056229 0.056213,-0.20874c0.025024,-0.152512 0.040009,-0.393753 0.040009,-0.711243l-0.001251,-0.064987l0.001251,-0.146271l-0.001251,-0.0625l0.001251,-0.062515l-0.001251,-0.146225l0.001251,-0.065002c0,-0.31749 -0.014984,-0.558746 -0.040009,-0.710007c-0.024963,-0.152481 -0.053741,-0.205002 -0.056213,-0.20874l-0.032501,-0.022522c-0.05127,-0.031219 -0.185028,-0.091248 -0.413757,-0.148727c-0.500031,-0.126251 -0.860016,-0.535004 -0.934998,-1.012512l0.017487,-0.133728l1.69751,-6.96875l-2.093781,0l-3.996216,6.142487l-11.452515,-0.45874c0.001251,-0.011246 0.316254,-0.882507 0.796265,-2.172485l1.654968,-0.015015c0.560028,-0.005005 1.011261,-0.463745 1.006287,-1.025009l-0.011261,-1.198746c-0.005005,-0.561264 -0.463776,-1.011261 -1.024994,-1.006241l-0.420013,0.006256c0.236267,-0.63504 0.481262,-1.293762 0.727509,-1.956253l1.617493,-0.015015c0.561249,-0.00499 1.011261,-0.46376 1.006226,-1.024979l-0.01123,-1.200012c-0.004944,-0.559998 -0.463745,-1.01123 -1.024963,-1.006241l-0.381287,0.006241c0,0 0.736267,-2.289993 1.063751,-3.168732c0.20874,-0.558746 -0.204987,-1.150002 -0.801239,-1.150002l-1.119995,0.0075c-0.928772,0 -1.80127,0.441261 -2.351257,1.190018l-8.702515,12.277481l-0.233734,0.234985c-0.236237,0.158752 -0.496246,0.251251 -0.767487,0.248764c0,0 -7.887512,-0.153763 -9.606262,-0.119995c-1.71875,0.033737 -6.777527,1.962479 -6.807495,4.812469l0.003723,0.070023l-0.003723,0.071259c0.029968,2.849991 5.088745,4.778748 6.807495,4.812469c1.71875,0.033752 9.606262,-0.119995 9.606262,-0.119995c0.27124,-0.003754 0.53125,0.089996 0.744965,0.248764l0.256256,0.234985l8.702515,12.277496c0.549988,0.747513 1.422485,1.188782 2.351257,1.190002l1.119995,0.006256c0.596252,0 1.009979,-0.591248 0.801239,-1.148758c-0.327484,-0.87999 -1.063751,-3.169998 -1.063751,-3.169998l0.381287,0.006256c0.561249,0.005005 1.02002,-0.445007 1.024963,-1.006256l0.01123,-1.198746c0.005066,-0.561249 -0.444977,-1.020004 -1.006226,-1.024994l-1.617493,-0.015015c-0.246246,-0.663727 -0.727509,-1.957489 -0.727509,-1.957489l0.420013,0.007492c0.561218,0.005005 1.019989,-0.446243 1.024994,-1.006241l0.011261,-1.200012c0.004974,-0.561249 -0.446259,-1.019989 -1.006287,-1.024979l-1.654968,-0.014999c-0.480011,-1.289993 -0.797516,-2.172501 -0.797516,-2.172501l11.453766,-0.45752l3.996216,6.141281l2.093781,0l-1.69751,-6.968781l-0.017487,-0.132492" id="path366"/>
   <path fill="#efede2" fill-rule="nonzero" d="m46.856232,31.935013l-1.128998,0.005997c-1.371002,0 -2.681976,0.664001 -3.5,1.775002l-8.627991,12.174004c-0.804993,-0.014999 -6.507996,-0.122009 -8.847015,-0.122009c-0.287994,0 -0.527985,0.001007 -0.704987,0.004013c-2.095001,0.041992 -8.173004,2.248993 -8.214996,6.233994l-0.001007,0.056l0.002991,0.029007l-0.001984,0.085999c0.041992,3.985001 6.119995,6.192993 8.214996,6.233994c0.177002,0.003006 0.416992,0.005005 0.704987,0.005005c2.327026,0 7.984009,-0.10701 8.847015,-0.124008l8.613007,12.154007c0.833008,1.130997 2.143982,1.794998 3.52298,1.794998l1.112,0.007996c0.76001,0 1.46402,-0.367996 1.893005,-0.985001c0.425995,-0.61499 0.524994,-1.401993 0.264008,-2.102997c-0.144012,-0.384995 -0.373993,-1.065994 -0.582001,-1.694c0.608002,-0.442001 1.006012,-1.156006 1.014008,-1.959991l0.010986,-1.200012c0.013,-1.350998 -1.076996,-2.460999 -2.429993,-2.472992l-0.027008,0c0.339996,-0.417999 0.546021,-0.947006 0.550995,-1.52301l0.01001,-1.199997c0.007996,-0.785995 -0.359009,-1.490997 -0.932007,-1.945999l6.733002,-0.268997l3.553009,5.458008l0.424011,0.651993l4.700989,0l-0.43399,-1.776001l-1.572021,-6.453995c0.221008,-0.070007 0.40802,-0.151001 0.558014,-0.244003l0.03299,-0.020004l0.032013,-0.020996l0.03299,-0.022003l0.184998,-0.126999l0.136017,-0.177002c0.173981,-0.222992 0.281006,-0.496002 0.339996,-0.860001c0.040009,-0.242996 0.05899,-0.559998 0.05899,-0.942993l-0.001007,-0.070999l0.001007,-0.139008l-0.001007,-0.056992l0.001007,-0.069l-0.001007,-0.136002l0.001007,-0.074997c0,-0.378006 -0.018982,-0.695007 -0.05899,-0.938004c-0.05899,-0.365997 -0.169006,-0.641006 -0.343994,-0.865005l-0.13501,-0.171997l-0.181,-0.125l-0.032013,-0.022995l-0.03299,-0.022003l-0.033997,-0.020004c-0.149994,-0.091003 -0.337006,-0.173996 -0.558014,-0.244003l1.572021,-6.453995l0.43399,-1.776001l-4.700989,0l-0.424011,0.654007l-3.553009,5.457001l-6.733002,-0.270004c0.572998,-0.453003 0.940002,-1.158005 0.932007,-1.945999l-0.01001,-1.199997c-0.004974,-0.575012 -0.210999,-1.105011 -0.550995,-1.521011l0.027008,0c0.654999,-0.005997 1.269012,-0.26799 1.727997,-0.733994c0.459015,-0.466995 0.709015,-1.085999 0.701996,-1.740997l-0.010986,-1.199005c-0.007996,-0.804001 -0.406006,-1.518997 -1.014008,-1.960999c0.208008,-0.625992 0.437988,-1.307999 0.582001,-1.693001c0.260986,-0.701996 0.161987,-1.487999 -0.264008,-2.102997c-0.427979,-0.617004 -1.132996,-0.984001 -1.884003,-0.984001l0,0l0,0zm0,1.434998c0.596008,0 1.01001,0.591003 0.801025,1.150002c-0.327026,0.879005 -1.063019,3.168999 -1.063019,3.168999l0.381012,-0.007004c0.565979,0 1.019989,0.449005 1.024994,1.007004l0.010986,1.199997c0.005005,0.561005 -0.444977,1.020004 -1.005981,1.025009l-1.618011,0.014999c-0.246002,0.662003 -0.490997,1.320999 -0.72699,1.955994l0.419983,-0.005997c0.56601,0 1.02002,0.447998 1.025024,1.005997l0.010986,1.199005c0.005005,0.561005 -0.445984,1.020004 -1.006012,1.024994l-1.654999,0.014999c-0.47998,1.290009 -0.794983,2.161011 -0.79599,2.171997l11.451996,0.459l3.996002,-6.14299l2.093994,0l-1.696991,6.968994l-0.018005,0.134003c0.075012,0.477005 0.434998,0.886002 0.934998,1.011993c0.229004,0.058014 0.363007,0.118011 0.414001,0.149002l0.032013,0.02301c0.002991,0.002991 0.031982,0.056 0.056,0.207993c0.024994,0.152008 0.040985,0.393005 0.040985,0.710007l-0.001984,0.065002l0.001984,0.146988l-0.001984,0.062012l0.001984,0.062988l-0.001984,0.146011l0.001984,0.064987c0,0.317001 -0.014984,0.559006 -0.040985,0.711014c-0.024017,0.153 -0.053009,0.204987 -0.056,0.209l-0.032013,0.021988c-0.050995,0.032013 -0.184998,0.090012 -0.414001,0.14801c-0.5,0.126999 -0.859985,0.534988 -0.934998,1.013992l0.018005,0.132004l1.696991,6.968994l-2.093994,0l-3.996002,-6.140991l-11.453979,0.457001c0,0 0.317993,0.882996 0.797974,2.172989l1.654999,0.014999c0.560028,0.005005 1.011017,0.463013 1.006012,1.025009l-0.010986,1.199997c-0.005005,0.557007 -0.459015,1.005997 -1.015015,1.005997l-0.429993,-0.007996c0,0 0.480988,1.294006 0.72699,1.957993l1.618011,0.015015c0.561005,0.00499 1.010986,0.463989 1.005981,1.024994l-0.010986,1.199005c-0.005005,0.556992 -0.459015,1.005997 -1.015015,1.005997l-0.390991,-0.005997c0,0 0.735992,2.289993 1.063019,3.169998c0.208984,0.556992 -0.205017,1.147995 -0.801025,1.147995l-1.119995,-0.005997c-0.928986,-0.001007 -1.800995,-0.442001 -2.350983,-1.190002l-8.703003,-12.276993l-0.233002,-0.235001c-0.234009,-0.157013 -0.488007,-0.249008 -0.755005,-0.249008c-0.013,0 -6.416992,0.125 -8.942017,0.125c-0.27597,0 -0.506989,-0.000992 -0.676971,-0.005005c-1.719025,-0.033997 -6.778015,-1.963989 -6.808014,-4.812988l0.003998,-0.070999l-0.001984,-0.062012c0.027985,-2.858002 5.086975,-4.786987 6.806,-4.819992c0.169983,-0.003998 0.399994,-0.005005 0.676971,-0.005005c2.525024,0 8.929016,0.125 8.929016,0.125c0.279999,0 0.533997,-0.093002 0.744995,-0.248993l0.256012,-0.235001l8.703003,-12.278008c0.549988,-0.747993 1.421997,-1.189995 2.350983,-1.189995l1.119995,-0.007004" id="path368"/>
   <path fill="#6c5e6e" fill-rule="nonzero" d="m59.962494,51.882523l0.001251,-0.065002c0,-0.317505 -0.014984,-0.558762 -0.040009,-0.710022c-0.024963,-0.152481 -0.053741,-0.205002 -0.056213,-0.20874l-0.032501,-0.022507c-0.05127,-0.031235 -0.185028,-0.091248 -0.413757,-0.148743c-0.500031,-0.126251 -0.860016,-0.535004 -0.934998,-1.012497l0.017487,-0.133743l1.69751,-6.96875l-2.093781,0l-3.996216,6.142502l-11.452515,-0.458755c0.001251,-0.011261 0.316254,-0.882507 0.796265,-2.172516l1.654968,-0.014984c0.560028,-0.005005 1.011261,-0.46376 1.006287,-1.025009l-0.011261,-1.198746c-0.005005,-0.561264 -0.463776,-1.011261 -1.024994,-1.006241l-0.420013,0.006256c0.236267,-0.63504 0.481262,-1.293762 0.727509,-1.956253l1.617493,-0.015015c0.561249,-0.00499 1.011261,-0.46376 1.006226,-1.024979l-0.01123,-1.200012c-0.004944,-0.559998 -0.463745,-1.01123 -1.024963,-1.006241l-0.381287,0.006241c0,0 0.736267,-2.289993 1.063751,-3.168732c0.20874,-0.558762 -0.204987,-1.150002 -0.801239,-1.150002l-1.119995,0.0075c-0.928772,0 -1.80127,0.441246 -2.351257,1.189987l-8.702515,12.277512l-0.233734,0.234985c-0.236237,0.158752 -0.496246,0.251251 -0.767487,0.248764c0,0 -7.887512,-0.153763 -9.606262,-0.119995c-1.71875,0.033737 -6.777527,1.962479 -6.807495,4.812469l42.696228,0.007492l-0.001251,-0.14621" id="path370"/>
  </g>
 </g>
</svg>