<svg id="ri-accident" width="80" height="80" xmlns="http://www.w3.org/2000/svg"
     xmlns:xlink="http://www.w3.org/1999/xlink"
     xmlns:ev="http://www.w3.org/2001/xml-events">
 <metadata id="metadata8">image/svg+xml</metadata>
 <defs>
  <clipPath id="clipPath312" clipPathUnits="userSpaceOnUse">
   <path id="path314" d="m1141.544434,-200.910477l-351.549011,0c0.620972,2.589813 1.289001,5.269516 1.976013,7.960907l0.605957,2.32811c10.558044,4.660187 15.675049,12.792999 33.504028,12.792999c24.945007,0 24.945007,-15.972595 49.893982,-15.972595c24.938049,0 24.938049,15.972595 49.869019,15.972595c24.929993,0 24.929993,-15.972595 49.870056,-15.972595c24.929932,0 24.929932,15.972595 49.859985,15.972595c24.929932,0 24.929932,-15.972595 49.849976,-15.972595c24.939941,0 24.939941,15.972595 49.859985,15.972595c4.75,0 8.589966,-0.582001 11.869995,-1.519501l0.52002,-2.453094c1.140015,-5.527405 2.459961,-12 3.869995,-19.109421"/>
  </clipPath>
  <clipPath id="clipPath330" clipPathUnits="userSpaceOnUse">
   <path id="path332" d="m1162.294434,-200.910477l-12.869995,0c-1.319946,6.699203 -2.569946,12.89061 -3.690063,18.320313l9.180054,-4.460892c0,0 3.040039,-4.69931 7.380005,-13.859421"/>
  </clipPath>
 </defs>

 <g >
  <title>Layer 1</title>
  <g id="accident">
   <path fill="#efede2" fill-rule="nonzero" d="m62.59375,79.544891l-45.641266,0c-9.323746,0 -16.952484,-7.628387 -16.952484,-16.952148l0,-45.641113c0,-9.324249 7.628738,-16.95163 16.952484,-16.95163l45.641266,0c9.323746,0 16.951233,7.62738 16.951233,16.95163l0,45.641113c0,9.323761 -7.627502,16.952148 -16.951233,16.952148" id="path276"/>
   <path fill="#515b5f" fill-rule="nonzero" d="m41.258759,33.012634l0,-28.894989c0,-0.821259 -0.665009,-1.486389 -1.486267,-1.486389c-0.819992,0 -1.486252,0.665131 -1.486252,1.486389l0,28.894989l2.972519,0" id="path278"/>
   <path fill="#3874c3" fill-rule="nonzero" d="m73.147491,28.542389c-0.178741,-0.835876 -0.406219,-1.661133 -0.68248,-2.469635c-0.964996,-2.833984 -2.513748,-5.483856 -4.539993,-7.866241c-0.288757,-0.34137 -0.587509,-0.675262 -0.896255,-1.005371c-0.617508,-0.657257 -1.271255,-1.293518 -1.961243,-1.903381c-1.033768,-0.915009 -2.147507,-1.775391 -3.331268,-2.572754c-5.917496,-3.983887 -13.594986,-6.398376 -21.963745,-6.398376c3.382492,0 6.483749,3.125 8.875,8.278259c0.47876,1.03125 0.928757,2.144135 1.346252,3.329132c0.278732,0.7901 0.543747,1.61087 0.792496,2.463348c0.125,0.425385 0.24501,0.858887 0.362503,1.298889c0.818741,3.082489 1.445007,6.512634 1.835007,10.177765c0.041245,0.394989 0.077484,0.795868 0.11499,1.196228c0.318756,-0.15863 0.643753,-0.351501 0.973755,-0.559113c2.90625,-1.554626 7.251251,-2.922272 11.283737,-2.922272c4.521255,0 6.545013,0.87738 8.171249,1.50238c-0.074982,-0.861359 -0.202484,-1.710876 -0.380005,-2.548859" id="path280"/>
   <path fill="#66b1e5" fill-rule="nonzero" d="m28.397491,21.696259c0.583771,-2.201111 1.266281,-4.226135 2.03125,-6.032257c2.447495,-5.782745 5.736237,-9.336365 9.34375,-9.337372c-8.926239,0 -17.066254,2.747009 -23.123749,7.215759c-1.892502,1.397491 -3.582489,2.961487 -5.028748,4.664124c-2.025009,2.382385 -3.574997,5.032257 -4.539993,7.866241c-0.275009,0.808502 -0.503754,1.633759 -0.681244,2.469635c-0.177505,0.837982 -0.305008,1.6875 -0.37999,2.548859c1.625,-0.625 3.649994,-1.50238 8.169998,-1.50238c4.033752,0 8.377487,1.367645 11.284988,2.922272c0.330017,0.207611 0.655014,0.401367 0.973755,0.559113c0.03624,-0.40036 0.07251,-0.801239 0.115005,-1.196228c0.389984,-3.665131 1.016251,-7.095276 1.834991,-10.177765" id="path282"/>
   <path fill="#4691d5" fill-rule="nonzero" d="m51.148758,21.696259c-0.117493,-0.440002 -0.237503,-0.873505 -0.362503,-1.298889c-0.248749,-0.852478 -0.513763,-1.673248 -0.792496,-2.463348c-0.417511,-1.184998 -0.867493,-2.297882 -1.346252,-3.329132c-2.391251,-5.153259 -5.492508,-8.278259 -8.875,-8.278259c-3.607498,0.001007 -6.896255,3.554626 -9.343765,9.337372c-0.764984,1.806122 -1.447479,3.831146 -2.03125,6.032257c-0.818741,3.082489 -1.444992,6.512634 -1.834991,10.177765c-0.042511,0.394989 -0.078751,0.795868 -0.115021,1.196228c2.280014,-0.75 4.236282,-1.519989 6.623779,-2.048859c1.857483,-0.411133 3.976242,-0.67627 6.701233,-0.67627c3.115021,0 5.437531,0.346252 7.482513,0.861389c2.046234,0.514618 3.814972,1.19873 5.826248,1.873505c-0.02002,-0.410126 -0.056259,-0.811005 -0.097504,-1.205994c-0.389999,-3.665131 -1.016266,-7.095276 -1.835007,-10.177765" id="path284"/>
   <path fill="#dcd8c1" fill-rule="nonzero" d="m53.737503,75.950165l-27.928757,0c-0.843735,0 -1.534988,-0.691406 -1.534988,-1.535156l0,-0.77887c0,-0.84375 0.691254,-1.534637 1.534988,-1.534637l27.928757,0c0.84375,0 1.533752,0.690887 1.533752,1.534637l0,0.77887c0,0.84375 -0.690002,1.535156 -1.533752,1.535156" id="path286"/>
   <path fill="#594b5a" fill-rule="nonzero" d="m39.773743,47.619141c3.726257,0 6.746262,-3.02301 6.746262,-6.748993c0,-3.727631 -3.020004,-6.748627 -6.746262,-6.748627c-3.726242,0 -6.748749,3.020996 -6.748749,6.748627c0,3.725983 3.022507,6.748993 6.748749,6.748993" id="path288"/>
   <path fill="#594b5a" fill-rule="nonzero" d="m38.586258,62.292389l-13.425018,0l0,2.481506c0,1.609863 1.305008,2.914978 2.915009,2.914978l10.51001,0l0,-5.396484" id="path290"/>
   <path fill="#594b5a" fill-rule="nonzero" d="m46.392487,49.59375l-13.23999,0c-4.413757,0 -7.991257,3.57901 -7.991257,7.992645l0,5.248474l5.396255,0l0,-4.262115c0,-0.4375 0.35376,-0.791504 0.791245,-0.791504c0.436249,0 0.790009,0.354004 0.790009,0.791504l0,2.261139l6.44751,0l0,5.089874l-6.44751,0l0,7.78125l15.267502,0l0,-15.132263c0,-0.4375 0.353729,-0.791504 0.791229,-0.791504c0.436249,0 0.790009,0.354004 0.790009,0.791504l0,15.132263l5.397491,0l0,-16.118622c0,-4.413635 -3.578735,-7.992645 -7.992508,-7.992645" id="path292"/>
   <path fill="#efede2" fill-rule="nonzero" d="m44.061234,48.932648l-12.752502,19.833862l12.752502,0c0,0 0,-20.091248 0,-19.833862" id="path294"/>
   <path fill="#ef268b" fill-rule="nonzero" d="m45.423752,46.34613c-0.71875,0.71875 -1.044998,1.67926 -0.986252,2.620117c0.940002,0.059143 1.900009,-0.267609 2.618744,-0.986359c0.718781,-0.71875 1.045013,-1.678619 0.986267,-2.618622c-0.941238,-0.059998 -1.901245,0.266113 -2.618759,0.984863" id="path296"/>
  </g>
 </g>
</svg>