<svg width="80" height="80" xmlns="http://www.w3.org/2000/svg">
 <metadata id="metadata8">image/svg+xml</metadata>
 <defs>
  <clipPath id="clipPath312" clipPathUnits="userSpaceOnUse">
   <path id="path314" d="m1224.694824,53.851898l-351.549011,0c0.620972,2.589813 1.289001,5.269505 1.976013,7.960896l0.605957,2.328106c10.558044,4.66021 15.675049,12.793007 33.504028,12.793007c24.945007,0 24.945007,-15.972599 49.893982,-15.972599c24.938049,0 24.938049,15.972599 49.869019,15.972599c24.929993,0 24.929993,-15.972599 49.870056,-15.972599c24.929932,0 24.929932,15.972599 49.859985,15.972599c24.929932,0 24.929932,-15.972599 49.849976,-15.972599c24.939941,0 24.939941,15.972599 49.859985,15.972599c4.75,0 8.589966,-0.582008 11.869995,-1.519516l0.52002,-2.453072c1.140015,-5.52742 2.459961,-12.000004 3.869995,-19.109421"/>
  </clipPath>
  <clipPath id="clipPath330" clipPathUnits="userSpaceOnUse">
   <path id="path332" d="m1245.444824,53.851898l-12.869995,0c-1.319946,6.699207 -2.569946,12.890602 -3.690063,18.320305l9.180054,-4.460907c0,0 3.040039,-4.699291 7.380005,-13.859406"/>
  </clipPath>
 </defs>
 <g>
  <title>Layer 1</title>
  <g id="building">
   <path fill="#efede2" fill-rule="nonzero" d="m62.592499,79.545013l-45.641235,0c-9.323761,0 -16.951263,-7.628754 -16.951263,-16.951244l0,-45.642509c0,-9.32251 7.627502,-16.95126 16.951263,-16.95126l45.641235,0c9.32373,0 16.952515,7.62875 16.952515,16.95126l0,45.642509c0,9.322491 -7.628784,16.951244 -16.952515,16.951244" id="path128"/>
   <path fill="#dcd8c1" fill-rule="nonzero" d="m59.243744,75.950005l-38.942505,0c-0.988739,0 -1.797485,-0.810005 -1.797485,-1.797508l0,-0.253761c0,-0.988747 0.808746,-1.796242 1.797485,-1.796242l38.942505,0c0.987518,0 1.797485,0.80751 1.797485,1.796242l0,0.253761c0,0.987503 -0.809967,1.797508 -1.797485,1.797508" id="path130"/>
   <path fill="#483947" fill-rule="nonzero" d="m39.772491,39.138741l5.452484,4.701248l0,-4.043747l6.397522,0l0,9.562489l9.325012,8.041237l-2.970032,3.445l-18.204987,-15.699997l-18.204987,15.699997l-2.971252,-3.445l21.176239,-18.261238" id="path132"/>
   <path fill="#ef268b" fill-rule="nonzero" d="m53.153717,58.39249l0,15.108746l-9.242493,0l0,-7.772522c0,-2.276241 -1.862488,-4.138721 -4.138763,-4.138721c-2.276245,0 -4.138733,1.862488 -4.138733,4.138721l0,7.772522l-9.243744,0l0,-15.108746l13.382477,-11.541252l13.381287,11.541252" id="path134"/>
   <path fill="#515b5f" fill-rule="nonzero" d="m41.258728,38.281261l0,-34.163741c0,-0.82127 -0.66626,-1.48624 -1.486267,-1.48624c-0.821228,0 -1.486237,0.66498 -1.486237,1.48624l0,34.163741l1.486237,-1.281242l1.486267,1.281242" id="path136"/>
   <path fill="#3874c3" fill-rule="nonzero" d="m73.14624,28.542511c-0.17749,-0.837502 -0.404999,-1.66124 -0.681274,-2.470001c-0.964996,-2.83375 -2.514984,-5.48374 -4.539978,-7.866249c-0.288727,-0.34 -0.588745,-0.675011 -0.89624,-1.00502c-0.617493,-0.657501 -1.272522,-1.2925 -1.961273,-1.903721c-1.035004,-0.91625 -2.147461,-1.775019 -3.331207,-2.572519c-5.918762,-3.98377 -13.595001,-6.39752 -21.963745,-6.39752c3.381226,0 6.483704,3.123779 8.874969,8.27751c0.477509,1.031271 0.92749,2.143749 1.346252,3.328741c0.278748,0.79002 0.542511,1.61125 0.792511,2.463758c0.123749,0.425001 0.244995,0.858761 0.361237,1.29875c0.818756,3.0825 1.445007,6.51125 1.834991,10.177502c0.04248,0.394989 0.078766,0.796261 0.115021,1.196247c0.318756,-0.158749 0.644989,-0.351257 0.975006,-0.558758c2.90625,-1.554989 7.25,-2.922501 11.283752,-2.922501c4.519989,0 6.544983,0.87751 8.170013,1.50251c-0.075012,-0.861259 -0.202545,-1.71125 -0.380035,-2.548748" id="path138"/>
   <path fill="#66b1e5" fill-rule="nonzero" d="m28.39624,21.696251c0.584991,-2.201231 1.267487,-4.226261 2.032501,-6.033741c2.44751,-5.78125 5.736237,-9.33502 9.34375,-9.33502c-8.92749,0 -17.066254,2.746281 -23.123749,7.215c-1.892517,1.397511 -3.58252,2.961269 -5.028748,4.663771c-2.026245,2.382509 -3.575012,5.032499 -4.539978,7.866249c-0.276276,0.80875 -0.503754,1.6325 -0.681274,2.470001c-0.178741,0.837498 -0.306244,1.687489 -0.381256,2.548748c1.626251,-0.625 3.651276,-1.50251 8.171265,-1.50251c4.032501,0 8.377502,1.367512 11.283722,2.922501c0.330017,0.2075 0.656281,0.401272 0.973785,0.558762c0.037476,-0.39999 0.07373,-0.801262 0.116241,-1.196251c0.389984,-3.666248 1.014984,-7.09499 1.83374,-10.1775" id="path140"/>
   <path fill="#4691d5" fill-rule="nonzero" d="m51.147491,21.696251c-0.116241,-0.439991 -0.237488,-0.87376 -0.361237,-1.29875c-0.25,-0.85251 -0.513763,-1.67374 -0.79248,-2.46376c-0.418762,-1.185001 -0.868774,-2.29748 -1.346283,-3.328741c-2.391266,-5.153728 -5.493713,-8.27751 -8.874969,-8.27751c-3.607513,0 -6.896271,3.55377 -9.343781,9.33502c-0.764984,1.80748 -1.44751,3.83251 -2.032471,6.033741c-0.818756,3.082499 -1.443756,6.51125 -1.833771,10.177498c-0.04248,0.394993 -0.078735,0.796261 -0.116241,1.196251c2.279999,-0.750011 4.236237,-1.52 6.625,-2.04874c1.857513,-0.411259 3.975006,-0.67625 6.701263,-0.67625c3.11496,0 5.436249,0.346241 7.482483,0.86124c2.044983,0.514999 3.815002,1.19875 5.824982,1.873741c-0.018738,-0.409981 -0.054962,-0.811249 -0.097473,-1.206249c-0.390015,-3.666252 -1.016266,-7.094992 -1.835022,-10.177502" id="path142"/>
  </g>
 </g>
</svg>