<svg width="80" height="80" xmlns="http://www.w3.org/2000/svg">
 <metadata id="metadata8">image/svg+xml</metadata>
 <defs>
  <clipPath id="clipPath312" clipPathUnits="userSpaceOnUse">
   <path id="path314" d="m1141.544434,-200.910477l-351.549011,0c0.620972,2.589813 1.289001,5.269516 1.976013,7.960907l0.605957,2.32811c10.558044,4.660187 15.675049,12.792999 33.504028,12.792999c24.945007,0 24.945007,-15.972595 49.893982,-15.972595c24.938049,0 24.938049,15.972595 49.869019,15.972595c24.929993,0 24.929993,-15.972595 49.870056,-15.972595c24.929932,0 24.929932,15.972595 49.859985,15.972595c24.929932,0 24.929932,-15.972595 49.849976,-15.972595c24.939941,0 24.939941,15.972595 49.859985,15.972595c4.75,0 8.589966,-0.582001 11.869995,-1.519501l0.52002,-2.453094c1.140015,-5.527405 2.459961,-12 3.869995,-19.109421"/>
  </clipPath>
  <clipPath id="clipPath330" clipPathUnits="userSpaceOnUse">
   <path id="path332" d="m1162.294434,-200.910477l-12.869995,0c-1.319946,6.699203 -2.569946,12.89061 -3.690063,18.320313l9.180054,-4.460892c0,0 3.040039,-4.69931 7.380005,-13.859421"/>
  </clipPath>
 </defs>
 <g>
  <title>Layer 1</title>
  <g id="freight">
   <path fill="#efede2" fill-rule="nonzero" d="m62.593254,79.544891l-45.641624,0c-9.323616,0 -16.95163,-7.628387 -16.95163,-16.952148l0,-45.641113c0,-9.324249 7.628014,-16.95163 16.95163,-16.95163l45.641624,0c9.323746,0 16.951248,7.62738 16.951248,16.95163l0,45.641113c0,9.323761 -7.627502,16.952148 -16.951248,16.952148" id="path298"/>
   <path fill="#515b5f" fill-rule="nonzero" d="m40.271996,40.55127c0.412521,-0.054749 0.826263,-0.111389 1.240021,-0.166016l0,-36.267609c0,-0.821259 -0.66626,-1.486389 -1.486252,-1.486389c-0.821243,0 -1.486252,0.665131 -1.486252,1.486389l0,37.237244c0.528748,-0.351013 1.101257,-0.625885 1.732498,-0.803619" id="path300"/>
   <path fill="#3874c3" fill-rule="nonzero" d="m73.147011,28.542389c-0.178772,-0.835876 -0.40625,-1.661133 -0.68251,-2.469635c-0.965012,-2.833984 -2.513748,-5.483856 -4.540009,-7.866241c-0.288742,-0.34137 -0.587494,-0.675262 -0.89624,-1.005371c-0.617508,-0.657257 -1.271255,-1.293518 -1.961258,-1.903381c-1.033737,-0.915009 -2.147491,-1.775391 -3.331253,-2.572754c-5.91748,-3.983887 -13.594986,-6.398376 -21.963745,-6.398376c3.382507,0 6.483749,3.125 8.875,8.278259c0.47876,1.03125 0.928757,2.144135 1.346237,3.329132c0.278763,0.7901 0.543762,1.61087 0.792511,2.463348c0.124985,0.425385 0.24501,0.858887 0.362503,1.298889c0.818741,3.082489 1.444992,6.512634 1.834991,10.177765c0.041245,0.394989 0.077499,0.795868 0.11499,1.196228c0.318756,-0.15863 0.643753,-0.351501 0.973755,-0.559113c2.90625,-1.554626 7.251251,-2.922272 11.283752,-2.922272c4.521255,0 6.544968,0.87738 8.171249,1.50238c-0.075012,-0.861359 -0.202499,-1.710876 -0.37999,-2.548859" id="path302"/>
   <path fill="#66b1e5" fill-rule="nonzero" d="m28.396507,21.696259c0.584503,-2.201111 1.267113,-4.226135 2.031746,-6.032257c2.447502,-5.782745 5.737495,-9.336365 9.343742,-9.337372c-8.926247,0 -17.065857,2.747009 -23.123116,7.215759c-1.893013,1.397491 -3.582489,2.961487 -5.029243,4.664124c-2.025375,2.382385 -3.574745,5.032257 -4.540009,7.866241c-0.275368,0.808502 -0.503502,1.633759 -0.681122,2.469635c-0.178246,0.837982 -0.305748,1.6875 -0.380363,2.548859c1.625496,-0.625 3.650368,-1.50238 8.170868,-1.50238c4.032753,0 8.37738,1.367645 11.28363,2.922272c0.330116,0.207611 0.65625,0.401367 0.974129,0.559113c0.036621,-0.40036 0.073242,-0.801239 0.115242,-1.196228c0.390129,-3.665131 1.016129,-7.095276 1.834511,-10.177765" id="path304"/>
   <path fill="#4691d5" fill-rule="nonzero" d="m51.148262,21.696259c-0.117508,-0.440002 -0.237518,-0.873505 -0.362503,-1.298889c-0.248764,-0.852478 -0.513763,-1.673248 -0.792511,-2.463348c-0.417496,-1.184998 -0.867493,-2.297882 -1.346252,-3.329132c-2.391251,-5.153259 -5.492493,-8.278259 -8.875,-8.278259c-3.606247,0.001007 -6.89624,3.554626 -9.343742,9.337372c-0.764633,1.806122 -1.447243,3.831146 -2.031746,6.032257c-0.818375,3.082489 -1.444374,6.512634 -1.834511,10.177765c-0.042,0.394989 -0.078613,0.795868 -0.115234,1.196228c2.279877,-0.75 4.236496,-1.519989 6.623985,-2.048859c1.857498,-0.411133 3.976257,-0.67627 6.701248,-0.67627c3.115021,0 5.4375,0.346252 7.482498,0.861389c2.046249,0.514618 3.815002,1.19873 5.826263,1.873505c-0.020004,-0.410126 -0.056259,-0.811005 -0.097504,-1.205994c-0.389999,-3.665131 -1.016251,-7.095276 -1.834976,-10.177765" id="path306"/>
   <g id="g308">
    <g id="g310" clip-path="url(#clipPath312)">
     <path fill="url(#linearGradient316)" fill-rule="nonzero" d="m59.440742,78.197723l-43.943634,0c0.077621,-0.32373 0.161133,-0.658691 0.247002,-0.995117l0.075737,-0.291016c1.319763,-0.58252 1.959381,-1.599121 4.188004,-1.599121c3.118126,0 3.118126,1.996552 6.236748,1.996552c3.117264,0 3.117264,-1.996552 6.233635,-1.996552c3.116241,0 3.116241,1.996552 6.233749,1.996552c3.116241,0 3.116241,-1.996552 6.232513,-1.996552c3.116226,0 3.116226,1.996552 6.231247,1.996552c3.117493,0 3.117493,-1.996552 6.232498,-1.996552c0.59375,0 1.073746,0.072754 1.483749,0.189941l0.065002,0.30661c0.142502,0.690948 0.307495,1.5 0.483749,2.388702" id="path322"/>
    </g>
   </g>
   <path fill="#d7d3bb" fill-rule="nonzero" d="m51.175743,75.726532c-3.11499,0 -3.11499,-1.997528 -6.231247,-1.997528c-3.116241,0 -3.116241,1.997528 -6.232513,1.997528c-3.117477,0 -3.117477,-1.997528 -6.233742,-1.997528c-3.116371,0 -3.116371,1.997528 -6.233635,1.997528c-3.118614,0 -3.118614,-1.997528 -6.236732,-1.997528c-3.118752,0 -3.118752,1.997528 -6.237381,1.997528c0,0 -1.217255,-0.325226 -1.217255,-1.177734c0,-0.852539 0.595253,-1.056152 1.028763,-1.379913c0.432617,-0.325134 3.363747,-2.166504 6.42588,-2.166504c3.118118,0 3.118118,1.99762 6.23674,1.99762c3.117256,0 3.117256,-1.99762 6.233627,-1.99762c3.116257,0 3.116257,1.99762 6.233749,1.99762c3.116257,0 3.116257,-1.99762 6.232498,-1.99762c3.116257,0 3.116257,1.99762 6.231247,1.99762c3.117523,0 3.117523,-1.99762 6.232513,-1.99762c3.116257,0 5.636246,1.652893 6.394989,2.044037c0.866257,0.446259 1.352493,1.015106 1.082504,1.705048c-0.257507,0.657196 -0.773758,0.907227 -1.452499,0.907227c-0.190002,0 -0.391251,-0.02002 -0.604996,-0.054688c-1.203751,-0.201202 -2.303772,-1.874969 -5.420013,-1.874969c-3.11499,0 -3.11499,1.997528 -6.232498,1.997528" id="path324"/>
   <g id="g326">
    <g id="g328" clip-path="url(#clipPath330)">
     <path fill="url(#linearGradient334)" fill-rule="nonzero" d="m62.034492,78.197723l-1.608749,0c-0.164993,-0.837402 -0.321243,-1.611328 -0.461258,-2.290039l1.147507,0.557587c0,0 0.380005,0.587433 0.922501,1.732452" id="path340"/>
    </g>
   </g>
   <path fill="#594b5a" fill-rule="nonzero" d="m31.75325,44.745117c-0.074997,-0.756348 -0.16375,-1.317474 -0.267502,-1.419983c-0.827499,-0.828613 -4.653252,-0.319763 -4.844116,1.464874c-0.06501,0.604004 -0.071251,1.506378 -0.053261,2.417511l5.164879,-2.462402" id="path342"/>
   <path fill="#594b5a" fill-rule="nonzero" d="m24.727501,51.782135l0.033997,1.414001c-1.277,0.544983 -2.087997,0.891998 -2.087997,0.891998l-0.162003,-1.299011c0,0 0.861,-0.393982 2.216003,-1.006989l0,0zm4.090996,-1.838013l0.037003,1.507019c-1.009003,0.429993 -1.961998,0.835999 -2.807999,1.195984l-0.034004,-1.444c0.845001,-0.381989 1.796005,-0.807983 2.805,-1.259003l0,0zm4.095009,-1.812988l0.036987,1.57901c-0.931992,0.394989 -1.880997,0.798981 -2.80999,1.194l-0.036003,-1.53302c0.920998,-0.410004 1.869003,-0.826996 2.809006,-1.23999zm4.104996,-1.772003l0.037994,1.610992c-0.860001,0.364014 -1.815994,0.768005 -2.819992,1.194l-0.03801,-1.585999c0.970001,-0.428986 1.930008,-0.84198 2.820007,-1.218994zm3.352005,-1.363983c0.248993,-0.094025 0.494995,-0.179016 0.73999,-0.261017l0.03801,1.572998c-0.169006,0.050995 -0.324005,0.101013 -0.453003,0.149017c-0.258011,0.096985 -1.130005,0.458984 -2.352005,0.971985l-0.039001,-1.606995c0.789001,-0.325012 1.490997,-0.606995 2.06601,-0.825989zm-21.326004,12.753998c1.845001,-0.640015 4.104996,-1.326019 6.520996,-2.018005c5.925003,-1.694 12.749008,-3.412994 16.334,-4.497009c1.878998,-0.570007 2.977997,-1.528992 4.102997,-2.561005c0.910004,-0.837006 1.843002,-1.720001 3.17601,-2.403992l-0.149002,-1.088989c-2.639008,0.129974 -4.975998,0.457977 -6.589996,0.802979l-0.039001,-1.635986c3.077988,-0.819 6.414993,-0.734009 6.414993,-0.734009c0.869995,0.016998 2.009995,0.053009 2.996994,0.130005l-0.144989,-1.893005c0,0 -1.708008,-0.28598 -4.324005,-0.398987c-0.186005,-0.026001 -1.186005,-0.003021 -1.186005,-0.003021c-3.69899,0.190002 -5.694,0.734009 -9.033997,2.085022c-1.307999,0.531006 -2.733994,1.156006 -4.188995,1.822998l-0.087006,0.065002l-6.223999,2.968994c-3.715996,1.901001 -6.674995,3.553009 -7.034996,3.911987c-1.241005,1.240021 -0.973,2.759003 -0.973,2.759003l0.429001,2.688019" id="path344"/>
   <path fill="#ef268b" fill-rule="nonzero" d="m55.794502,49.43988c0.503738,0 0.912506,0.410126 0.912506,0.914124c0,0.503876 -0.408768,0.913513 -0.912506,0.913513c-0.505005,0 -0.913742,-0.409637 -0.913742,-0.913513c0,-0.503998 0.408737,-0.914124 0.913742,-0.914124zm-39.974625,14.998993c1.319756,0.58252 1.959373,1.600128 4.188004,1.600128c3.118118,0 3.118118,-1.997498 6.23674,-1.997498c3.117256,0 3.117256,1.997498 6.233627,1.997498c3.116257,0 3.116257,-1.997498 6.233749,-1.997498c3.116257,0 3.116257,1.997498 6.232498,1.997498c3.116257,0 3.116257,-1.997498 6.231247,-1.997498c3.117523,0 3.117523,1.997498 6.232513,1.997498c0.59375,0 1.073746,-0.07373 1.483749,-0.191376l0.064987,-0.306122c0.333771,-1.608856 0.780014,-3.833984 1.226273,-6.294983c0.888748,-4.905273 1.774979,-10.762634 1.779999,-14.53363l-0.097504,-0.041504c-0.151245,-0.048889 -0.433746,-0.08252 -0.792496,-0.081116c-1.15625,-0.001404 -3.108749,0.304749 -5.121262,0.752502c-2.013748,0.446228 -4.102509,1.0336 -5.563751,1.580994c-1.763748,0.662628 -2.814987,1.673859 -3.94751,2.713867c-1.127487,1.037628 -2.339996,2.098633 -4.352478,2.705139c-2.919998,0.882233 -7.923752,2.171356 -12.857765,3.526367c-4.931107,1.35199 -9.798859,2.777252 -12.387741,3.900879c-0.737747,0.318878 -1.290497,0.620117 -1.578629,0.85498c-0.155251,0.122498 -0.22113,0.229889 -0.222641,0.25c0.076645,0.693756 0.368652,1.970123 0.702644,3.273895l0.075745,0.289978" id="path346"/>
   <path fill="#726673" fill-rule="nonzero" d="m62.828255,65.746521c-1.203751,0.201233 -2.303772,1.875977 -5.420013,1.875977c-3.11499,0 -3.11499,-1.997498 -6.232498,-1.997498c-3.11499,0 -3.11499,1.997498 -6.231247,1.997498c-3.116241,0 -3.116241,-1.997498 -6.232513,-1.997498c-3.117477,0 -3.117477,1.997498 -6.233742,1.997498c-3.116364,0 -3.116364,-1.997498 -6.233635,-1.997498c-3.118614,0 -3.118614,1.997498 -6.236725,1.997498c-3.118759,0 -3.118759,-1.997498 -6.237389,-1.997498c0,0 -1.217751,0.325134 -1.217751,1.17627c0,0.852478 0.595749,1.056122 1.029251,1.381378c0.432617,0.323608 3.363747,2.164978 6.42588,2.164978c3.118118,0 3.118118,-1.99762 6.236732,-1.99762c3.117264,0 3.117264,1.99762 6.233635,1.99762c3.116264,0 3.116264,-1.99762 6.233742,-1.99762c3.116272,0 3.116272,1.99762 6.232513,1.99762c3.116257,0 3.116257,-1.99762 6.231247,-1.99762c3.117508,0 3.117508,1.99762 6.232498,1.99762c3.116257,0 5.636261,-1.652374 6.395004,-2.044006c0.866257,-0.446228 1.352478,-1.014618 1.082489,-1.704498c-0.330002,-0.84137 -1.082489,-1.015228 -2.057495,-0.8526" id="path348"/>
   <path fill="#f13ea5" fill-rule="nonzero" d="m59.9645,65.442871l1.147491,-0.557617c0,0 3.733749,-5.734863 4.546265,-16.613861c-1.26001,-1.716248 -2.273773,-2.705017 -2.763763,-3.140137c-0.039993,3.862885 -0.913742,9.59137 -1.787491,14.420013c-0.410004,2.265106 -0.818756,4.321228 -1.142502,5.891602" id="path350"/>
  </g>
 </g>
</svg>