<svg width="80" height="80" xmlns="http://www.w3.org/2000/svg">
 <metadata id="metadata8">image/svg+xml</metadata>
 <defs>
  <clipPath id="clipPath312" clipPathUnits="userSpaceOnUse">
   <path id="path314" d="m1224.694824,53.851898l-351.549011,0c0.620972,2.589813 1.289001,5.269505 1.976013,7.960896l0.605957,2.328106c10.558044,4.66021 15.675049,12.793007 33.504028,12.793007c24.945007,0 24.945007,-15.972599 49.893982,-15.972599c24.938049,0 24.938049,15.972599 49.869019,15.972599c24.929993,0 24.929993,-15.972599 49.870056,-15.972599c24.929932,0 24.929932,15.972599 49.859985,15.972599c24.929932,0 24.929932,-15.972599 49.849976,-15.972599c24.939941,0 24.939941,15.972599 49.859985,15.972599c4.75,0 8.589966,-0.582008 11.869995,-1.519516l0.52002,-2.453072c1.140015,-5.52742 2.459961,-12.000004 3.869995,-19.109421"/>
  </clipPath>
  <clipPath id="clipPath330" clipPathUnits="userSpaceOnUse">
   <path id="path332" d="m1245.444824,53.851898l-12.869995,0c-1.319946,6.699207 -2.569946,12.890602 -3.690063,18.320305l9.180054,-4.460907c0,0 3.040039,-4.699291 7.380005,-13.859406"/>
  </clipPath>
 </defs>
 <g>
  <title>Layer 1</title>
  <g id="medical">
   <path fill="#efede2" fill-rule="nonzero" d="m62.592819,79.544998l-45.64163,0c-9.323249,0 -16.951189,-7.627502 -16.951189,-16.951248l0,-45.641251c0,-9.323746 7.62794,-16.952499 16.951189,-16.952499l45.64163,0c9.323753,0 16.951622,7.628754 16.951622,16.952499l0,45.641251c0,9.323746 -7.627876,16.951248 -16.951622,16.951248" id="path144"/>
   <path fill="#dcd8c1" fill-rule="nonzero" d="m54.253441,75.950012l-28.962381,0c-1.058121,0 -1.92387,-0.865005 -1.92387,-1.923752c0,-1.05751 0.865749,-1.923752 1.92387,-1.923752l28.962381,0c1.058121,0 1.923752,0.866241 1.923752,1.923752c0,1.058746 -0.865631,1.923752 -1.923752,1.923752" id="path146"/>
   <path fill="#515b5f" fill-rule="nonzero" d="m39.771942,61.792511c-0.820251,0 -1.485752,-0.66626 -1.485752,-1.486252l0,-56.188736c0,-0.820023 0.665501,-1.485001 1.485752,-1.485001c0.820881,0 1.48637,0.664978 1.48637,1.485001l0,56.188736c0,0.819992 -0.665501,1.486252 -1.48637,1.486252" id="path148"/>
   <path fill="#3874c3" fill-rule="nonzero" d="m73.146439,28.543762c-0.17775,-0.837494 -0.40625,-1.66124 -0.681618,-2.471252c-0.965256,-2.832489 -2.514626,-5.483749 -4.540001,-7.866257c-0.289505,-0.339981 -0.588379,-0.67498 -0.896996,-1.003738c-0.616623,-0.658752 -1.2715,-1.293755 -1.960884,-1.903748c-1.034248,-0.916245 -2.147499,-1.776245 -3.331116,-2.572517c-5.918003,-3.983742 -13.594753,-6.39875 -21.963875,-6.39875c3.38187,0 6.483883,3.123749 8.875,8.27877c0.4785,1.031242 0.928253,2.143745 1.346252,3.327477c0.278748,0.789993 0.542999,1.612503 0.7925,2.46376c0.1245,0.426254 0.245499,0.860001 0.362251,1.299995c0.818378,3.082497 1.44437,6.511246 1.834499,10.17749c0.042007,0.395012 0.078629,0.795021 0.11525,1.196251c0.318871,-0.15873 0.644501,-0.351227 0.974121,-0.559998c2.90625,-1.553741 7.250999,-2.921234 11.28363,-2.921234c4.520485,0 6.545502,0.876251 8.170868,1.502487c-0.074623,-0.861237 -0.202118,-1.711258 -0.379883,-2.548737" id="path150"/>
   <path fill="#66b1e5" fill-rule="nonzero" d="m28.396441,21.69751c0.584499,-2.201248 1.26712,-4.226257 2.03175,-6.033768c2.447752,-5.78125 5.736872,-9.336243 9.343752,-9.336243c-8.926752,0 -17.065882,2.747505 -23.123503,7.216248c-1.89263,1.396255 -3.5825,2.961266 -5.029248,4.662506c-2.0255,2.382492 -3.574751,5.033745 -4.539631,7.866257c-0.27588,0.809998 -0.50387,1.633743 -0.68161,2.471237c-0.17774,0.837524 -0.30518,1.687515 -0.38038,2.548752c1.62549,-0.626236 3.650361,-1.502495 8.170859,-1.502495c4.033251,0 8.377501,1.367493 11.28425,2.921257c0.3295,0.20874 0.655752,0.40126 0.974119,0.560005c0.036621,-0.401253 0.07275,-0.801247 0.11525,-1.196251c0.389622,-3.666245 1.015633,-7.095016 1.83437,-10.177505" id="path152"/>
   <path fill="#4691d5" fill-rule="nonzero" d="m51.147942,21.69751c-0.116749,-0.440002 -0.237751,-0.873764 -0.362251,-1.300018c-0.2495,-0.851242 -0.51376,-1.673737 -0.7925,-2.46373c-0.417999,-1.183769 -0.867748,-2.296265 -1.346249,-3.327522c-2.391121,-5.154976 -5.49313,-8.27874 -8.875,-8.27874c-3.60688,0 -6.896,3.554993 -9.343752,9.336235c-0.764629,1.807503 -1.44725,3.832512 -2.03175,6.033768c-0.818752,3.082481 -1.444752,6.511246 -1.83437,10.17749c-0.0425,0.394997 -0.078632,0.795021 -0.11525,1.196251c2.279247,-0.75 4.236248,-1.521255 6.623999,-2.048752c1.85738,-0.41124 3.97562,-0.676262 6.70113,-0.676262c3.115253,0 5.437,0.34626 7.482502,0.860008c2.04538,0.515015 3.81488,1.198753 5.82563,1.875c-0.019001,-0.41124 -0.055622,-0.811249 -0.09763,-1.206253c-0.390121,-3.666237 -1.016121,-7.095001 -1.834499,-10.177498" id="path154"/>
   <path fill="#ef268b" fill-rule="nonzero" d="m57.666943,45.685013c-1.161621,-4.166245 -4.867123,-7.21624 -9.262119,-7.21624c-3.783253,0 -7.055252,2.258743 -8.632874,5.544991c-1.578129,-3.286247 -4.850117,-5.544991 -8.63275,-5.544991c-4.3955,0 -8.10112,3.049995 -9.26025,7.217491c-0.002501,-0.001251 -2.753,6.748749 5.661621,15.181244c8.414,8.431259 12.231379,12.210007 12.231379,12.210007c0,0 3.817371,-3.778748 12.231503,-12.210007c8.413998,-8.43251 5.663498,-15.18251 5.663498,-15.18251" id="path156"/>
   <path fill="#ffffff" fill-rule="nonzero" d="m36.750443,66.796265l6.04298,0l0,-21.091248l-6.04298,0l0,21.091248z" id="path158"/>
   <path fill="#ffffff" fill-rule="nonzero" d="m29.226561,59.272522l21.091249,0l0,-6.043945l-21.091249,0l0,6.043945z" id="path160"/>
  </g>
 </g>
</svg>