<svg width="80" height="80" xmlns="http://www.w3.org/2000/svg">
 <metadata id="metadata8">image/svg+xml</metadata>
 <defs>
  <clipPath id="clipPath312" clipPathUnits="userSpaceOnUse">
   <path id="path314" d="m1224.694824,53.851898l-351.549011,0c0.620972,2.589813 1.289001,5.269505 1.976013,7.960896l0.605957,2.328106c10.558044,4.66021 15.675049,12.793007 33.504028,12.793007c24.945007,0 24.945007,-15.972599 49.893982,-15.972599c24.938049,0 24.938049,15.972599 49.869019,15.972599c24.929993,0 24.929993,-15.972599 49.870056,-15.972599c24.929932,0 24.929932,15.972599 49.859985,15.972599c24.929932,0 24.929932,-15.972599 49.849976,-15.972599c24.939941,0 24.939941,15.972599 49.859985,15.972599c4.75,0 8.589966,-0.582008 11.869995,-1.519516l0.52002,-2.453072c1.140015,-5.52742 2.459961,-12.000004 3.869995,-19.109421"/>
  </clipPath>
  <clipPath id="clipPath330" clipPathUnits="userSpaceOnUse">
   <path id="path332" d="m1245.444824,53.851898l-12.869995,0c-1.319946,6.699207 -2.569946,12.890602 -3.690063,18.320305l9.180054,-4.460907c0,0 3.040039,-4.699291 7.380005,-13.859406"/>
  </clipPath>
 </defs>
 <g>
  <title>Layer 1</title>
  <g id="motor">
   <path fill="#efede2" fill-rule="nonzero" d="m62.592499,79.545013l-45.641235,0c-9.323761,0 -16.951263,-7.628754 -16.951263,-16.951244l0,-45.642509c0,-9.32251 7.627502,-16.95126 16.951263,-16.95126l45.641235,0c9.323761,0 16.951263,7.62875 16.951263,16.95126l0,45.642509c0,9.322491 -7.627502,16.951244 -16.951263,16.951244" id="path104"/>
   <path fill="#515b5f" fill-rule="nonzero" d="m41.511246,37.48l0,-33.362479c0,-0.82127 -0.664993,-1.48628 -1.486237,-1.48628c-0.820007,0 -1.486267,0.66502 -1.486267,1.48628l0,33.362479l2.972488,0" id="path106"/>
   <path fill="#3874c3" fill-rule="nonzero" d="m73.14624,28.542511c-0.17749,-0.837502 -0.406235,-1.66124 -0.681244,-2.470001c-0.964996,-2.83375 -2.515015,-5.48374 -4.540009,-7.866249c-0.289993,-0.34 -0.58873,-0.675011 -0.897491,-1.00502c-0.616241,-0.657501 -1.271255,-1.2925 -1.961258,-1.903721c-1.033737,-0.91625 -2.147507,-1.775019 -3.330002,-2.572519c-5.918747,-3.98377 -13.594986,-6.39752 -21.963745,-6.39752c3.381256,0 6.483749,3.123779 8.875015,8.27751c0.477493,1.031271 0.92749,2.143749 1.345001,3.328741c0.278732,0.79002 0.543747,1.61125 0.79248,2.463758c0.125015,0.425001 0.246262,0.858761 0.362518,1.29875c0.818741,3.0825 1.444992,6.51125 1.834991,10.177502c0.041245,0.394989 0.078751,0.796261 0.11499,1.196247c0.318756,-0.158749 0.64502,-0.351257 0.97377,-0.558758c2.906235,-1.554989 7.251236,-2.922501 11.283737,-2.922501c4.521255,0 6.546249,0.87751 8.171249,1.50251c-0.074982,-0.861259 -0.202515,-1.71125 -0.380005,-2.548748" id="path108"/>
   <path fill="#66b1e5" fill-rule="nonzero" d="m28.39624,21.696251c0.585007,-2.201231 1.267517,-4.226261 2.032516,-6.033741c2.447495,-5.78125 5.736237,-9.33502 9.343735,-9.33502c-8.92749,0 -17.066254,2.746281 -23.123734,7.215c-1.893753,1.397511 -3.582504,2.961269 -5.030014,4.663771c-2.024994,2.382509 -3.57373,5.032499 -4.540009,7.866249c-0.274994,0.80875 -0.502487,1.6325 -0.681244,2.470001c-0.17749,0.837498 -0.304977,1.687489 -0.37999,2.548748c1.625,-0.625 3.649994,-1.50251 8.171249,-1.50251c4.032501,0 8.377502,1.367512 11.283752,2.922501c0.329987,0.2075 0.656265,0.401272 0.97374,0.558762c0.03627,-0.39999 0.073761,-0.801262 0.11499,-1.196251c0.39003,-3.666248 1.016281,-7.09499 1.835007,-10.1775" id="path110"/>
   <path fill="#4691d5" fill-rule="nonzero" d="m51.147507,21.696251c-0.116257,-0.439991 -0.237503,-0.87376 -0.362518,-1.29875c-0.248734,-0.85251 -0.513748,-1.67374 -0.79248,-2.46376c-0.417511,-1.185001 -0.867508,-2.29748 -1.345001,-3.328741c-2.391251,-5.153728 -5.493759,-8.27751 -8.875015,-8.27751c-3.607498,0 -6.89624,3.55377 -9.343735,9.33502c-0.764999,1.80748 -1.44751,3.83251 -2.032516,6.033741c-0.818741,3.082499 -1.444977,6.51125 -1.835007,10.177498c-0.041229,0.394993 -0.07872,0.796261 -0.11499,1.196251c2.279999,-0.750011 4.236267,-1.52 6.625015,-2.04874c1.857483,-0.411259 3.974976,-0.67625 6.701233,-0.67625c3.115005,0 5.436249,0.346241 7.481247,0.86124c2.046265,0.514999 3.815002,1.19875 5.826263,1.873741c-0.018753,-0.409981 -0.056259,-0.811249 -0.097504,-1.206249c-0.389999,-3.666252 -1.016251,-7.094992 -1.834991,-10.177502" id="path112"/>
   <path fill="#dcd8c1" fill-rule="nonzero" d="m62.481247,75.950005l-44.888748,0c-1.05751,0 -1.923737,-0.866249 -1.923737,-1.923759c0,-1.058739 0.866226,-1.923752 1.923737,-1.923752l44.888748,0c1.057495,0 1.923752,0.865013 1.923752,1.923752c0,1.05751 -0.866257,1.923759 -1.923752,1.923759" id="path114"/>
   <path fill="#63585d" fill-rule="nonzero" d="m18.15625,67.191238l0,4.402496c0,1.053772 0.761261,1.907501 1.702499,1.907501l3.027496,0c0.940018,0 1.702515,-0.853729 1.702515,-1.907501l0,-2.682495c-2.077499,-0.288742 -4.345016,-0.702484 -5.125015,-0.960007c-0.53125,-0.175003 -0.956253,-0.446243 -1.30751,-0.76001" id="path116"/>
   <path fill="#63585d" fill-rule="nonzero" d="m55.429993,68.947495l0,2.64624c0,1.053772 0.763763,1.907501 1.702499,1.907501l3.030014,0c0.938736,0 1.699997,-0.853752 1.699997,-1.907501l0,-4.34874c-0.339996,0.289978 -0.75,0.539978 -1.252518,0.706238c-0.722473,0.23999 -2.982483,0.707512 -5.179993,0.996262" id="path118"/>
   <path fill="#594b5a" fill-rule="nonzero" d="m60.070999,59.101254c-4.854996,0.936295 -9.862,1.404999 -9.862,1.404999c0,0 0.302994,-2.711205 0.640991,-3.9062c6.718002,-0.747501 9.070007,-1.416302 9.070007,-1.416302c0.606003,2.0075 0.151001,3.917503 0.151001,3.917503zm-28.736008,7.141201c0,0 0.302002,-2.946201 1.921005,-3.240002c1.382996,-0.252403 12.124008,-0.252403 13.505997,0c1.619003,0.2938 1.921997,3.240002 1.921997,3.240002l-17.348999,0zm-11.660995,-7.186207c0,0 0.152008,-1.962494 0.425003,-3.872498c0,0 2.352005,0.668701 9.070999,1.416199c0.335007,1.195 0.641006,3.906303 0.641006,3.906303c0,0 -5.282013,-0.513802 -10.137009,-1.450005l0,0zm5.223007,-10.383698c0.202988,-0.413799 0.393997,-0.813801 0.575989,-1.192501c1.751007,-3.666298 2.74501,-6.039997 4.532013,-6.333797c1.86499,-0.307503 5.819,-0.5037 9.354996,-0.5812l0.205002,-0.02l0.414001,0.008698l0.470001,-0.008698l0.199997,0.02c3.535995,0.077499 7.491989,0.273697 9.356003,0.5812c1.784988,0.2938 2.781998,2.6675 4.53299,6.333797c0.182999,0.385002 0.380997,0.791203 0.585999,1.211201c0.231003,0.478802 -0.593994,1.215 -1.299988,1.215c0,0 -7.056015,-0.650002 -13.662003,-0.6875l-0.210007,0l-0.209991,-0.001202c-6.605011,0.0387 -13.661011,0.688702 -13.661011,0.688702c-0.664001,0 -1.412994,-0.758701 -1.18399,-1.2337zm15.173996,1.900002c9.533997,-0.162601 13.677994,0.401199 16.520004,2.535c0,0 -7.386002,0.8475 -16.032013,0.993698c0.026001,-0.2537 0.045013,-0.5112 0.045013,-0.771198c0,-0.9538 -0.188004,-1.881302 -0.533005,-2.7575l0,0zm18.485001,0.32c-2.624008,-5.0938 -3.830002,-9.407501 -6.445999,-10.736301c-0.374008,-0.188702 -0.776001,-0.3237 -1.214996,-0.397499c-2.367004,-0.397499 -5.466003,-0.845001 -10.858002,-0.845001c-5.391998,0 -8.491013,0.447502 -10.85701,0.845001c-0.438995,0.073799 -0.840988,0.208797 -1.214996,0.397499c-2.615997,1.3288 -3.824005,5.642502 -6.440002,10.726299c-0.535995,0.756203 -2.054993,2.418701 -2.914001,4.025002l-0.556992,5.25l0.475998,4.822506c0,0 0.141998,1.336197 1.445999,1.767494c0.809998,0.267502 4.311005,0.888695 6.770004,1.124992c5.014999,0.482414 6.391998,0.375008 13.037994,0.375008c6.647003,0 9.682007,-0.107506 13.544998,-0.375008c2.462997,-0.171295 5.958008,-0.857491 6.768005,-1.124992c1.304001,-0.431297 1.446991,-1.767494 1.446991,-1.767494l0.476013,-4.822506l-0.556,-5.25c-0.860001,-1.6063 -2.379013,-3.268799 -2.908005,-4.014999" id="path120"/>
   <path fill="#706472" fill-rule="nonzero" d="m26.662506,49.206249c9.464981,-2.147499 26.863739,0.073761 26.863739,0.073761c-0.154999,-0.81501 -1.007492,-1.258751 -1.007492,-1.258751c-3.726257,-1.776237 -23.141251,-1.824989 -25.493759,0.098763c-0.922485,0.75375 -0.362488,1.086239 -0.362488,1.086239" id="path122"/>
   <path fill="#63585d" fill-rule="nonzero" d="m20.436249,50.99625c0,0 1.011261,-1.607491 1.112503,-1.82251l0.101242,-2.678741c0,0 -0.001251,-0.96376 -1.012512,-0.96376c-1.011246,0 -2.527512,0.107521 -2.527512,0.107521c0,0 -1.417465,-0.053768 -1.517487,1.606239c-0.051239,1.876263 2.326248,1.928753 3.236237,2.251263l0.607513,1.5" id="path124"/>
   <path fill="#63585d" fill-rule="nonzero" d="m61.963745,45.63876c0,0 -1.516235,-0.107498 -2.527496,-0.107498c-1.011246,0 -1.012497,0.963749 -1.012497,0.963749l0.101242,2.678761c0.101257,0.215 1.112488,1.822491 1.112488,1.822491l0.607513,-1.5c0.909988,-0.322491 3.287506,-0.375 3.236237,-2.25124c-0.099991,-1.66 -1.517487,-1.606251 -1.517487,-1.606251" id="path126"/>
  </g>
 </g>
</svg>