<svg width="80" height="80" xmlns="http://www.w3.org/2000/svg">
 <metadata id="metadata8">image/svg+xml</metadata>
 <defs>
  <clipPath id="clipPath312" clipPathUnits="userSpaceOnUse">
   <path id="path314" d="m1224.694824,53.851898l-351.549011,0c0.620972,2.589813 1.289001,5.269505 1.976013,7.960896l0.605957,2.328106c10.558044,4.66021 15.675049,12.793007 33.504028,12.793007c24.945007,0 24.945007,-15.972599 49.893982,-15.972599c24.938049,0 24.938049,15.972599 49.869019,15.972599c24.929993,0 24.929993,-15.972599 49.870056,-15.972599c24.929932,0 24.929932,15.972599 49.859985,15.972599c24.929932,0 24.929932,-15.972599 49.849976,-15.972599c24.939941,0 24.939941,15.972599 49.859985,15.972599c4.75,0 8.589966,-0.582008 11.869995,-1.519516l0.52002,-2.453072c1.140015,-5.52742 2.459961,-12.000004 3.869995,-19.109421"/>
  </clipPath>
  <clipPath id="clipPath330" clipPathUnits="userSpaceOnUse">
   <path id="path332" d="m1245.444824,53.851898l-12.869995,0c-1.319946,6.699207 -2.569946,12.890602 -3.690063,18.320305l9.180054,-4.460907c0,0 3.040039,-4.699291 7.380005,-13.859406"/>
  </clipPath>
 </defs>
 <g>
  <title>Layer 1</title>
  <g id="motorcycle">
   <path fill="#efede2" fill-rule="nonzero" d="m62.592819,79.544861l-45.64163,0c-9.323249,0 -16.951189,-7.628372 -16.951189,-16.951111l0,-45.642502c0,-9.32251 7.62794,-16.951248 16.951189,-16.951248l45.64163,0c9.323753,0 16.951622,7.628738 16.951622,16.951248l0,45.642502c0,9.322739 -7.627876,16.951111 -16.951622,16.951111" id="path162"/>
   <path fill="#dcd8c1" fill-rule="nonzero" d="m54.253441,75.950134l-28.962381,0c-1.058121,0 -1.92387,-0.866135 -1.92387,-1.923767c0,-1.058624 0.865749,-1.923874 1.92387,-1.923874l28.962381,0c1.058121,0 1.923752,0.86525 1.923752,1.923874c0,1.057632 -0.865631,1.923767 -1.923752,1.923767" id="path164"/>
   <path fill="#515b5f" fill-rule="nonzero" d="m39.771942,61.791489c-0.820251,0 -1.485752,-0.665115 -1.485752,-1.486374l0,-56.187622c0,-0.821259 0.665501,-1.486252 1.485752,-1.486252c0.820881,0 1.48637,0.664993 1.48637,1.486252l0,56.187622c0,0.821259 -0.665501,1.486374 -1.48637,1.486374" id="path166"/>
   <path fill="#3874c3" fill-rule="nonzero" d="m73.146439,28.543747c-0.17775,-0.837494 -0.40625,-1.662506 -0.681618,-2.471252c-0.965256,-2.833755 -2.514626,-5.483749 -4.540001,-7.866257c-0.289505,-0.339996 -0.588379,-0.675003 -0.896996,-1.003738c-0.616623,-0.658752 -1.2715,-1.293747 -1.960884,-1.904999c-1.034248,-0.915009 -2.147499,-1.774994 -3.331116,-2.571259c-5.918003,-3.985001 -13.594753,-6.398743 -21.963875,-6.398743c3.38187,0 6.483883,3.123749 8.875,8.278748c0.4785,1.03125 0.928253,2.142502 1.346252,3.327499c0.278748,0.789993 0.542999,1.612503 0.7925,2.46376c0.1245,0.426239 0.245499,0.858734 0.362251,1.298737c0.818378,3.082504 1.44437,6.512512 1.834499,10.177505c0.042007,0.395004 0.078629,0.796265 0.11525,1.197495c0.318871,-0.158752 0.644501,-0.352493 0.974121,-0.559998c2.90625,-1.553741 7.250999,-2.922501 11.28363,-2.922501c4.520485,0 6.545502,0.877502 8.170868,1.502502c-0.074623,-0.860001 -0.202118,-1.711258 -0.379883,-2.547501" id="path168"/>
   <path fill="#66b1e5" fill-rule="nonzero" d="m28.396441,21.696243c0.584499,-2.201248 1.26712,-4.224991 2.03175,-6.032501c2.447752,-5.782501 5.736872,-9.336243 9.343752,-9.336243c-8.926752,0 -17.065882,2.747513 -23.123503,7.216263c-1.89263,1.39624 -3.5825,2.961227 -5.029248,4.662491c-2.0255,2.382507 -3.574751,5.032486 -4.539631,7.866257c-0.27588,0.808746 -0.50387,1.633759 -0.68161,2.471252c-0.17774,0.836227 -0.30518,1.6875 -0.38038,2.547501c1.62549,-0.625 3.650361,-1.502502 8.170859,-1.502502c4.033251,0 8.377501,1.368759 11.28425,2.922501c0.3295,0.207489 0.655752,0.401245 0.974119,0.559998c0.036621,-0.401245 0.07275,-0.802505 0.11525,-1.197495c0.389622,-3.664993 1.015633,-7.095001 1.83437,-10.177505" id="path170"/>
   <path fill="#4691d5" fill-rule="nonzero" d="m51.147942,21.696243c-0.116749,-0.440002 -0.237751,-0.872498 -0.362251,-1.298737c-0.2495,-0.851257 -0.51376,-1.673767 -0.7925,-2.46376c-0.417999,-1.184998 -0.867748,-2.296249 -1.346249,-3.327499c-2.391121,-5.154999 -5.49313,-8.278748 -8.875,-8.278748c-3.60688,0 -6.896,3.553741 -9.343752,9.336243c-0.764629,1.80751 -1.44725,3.831238 -2.03175,6.032501c-0.818752,3.082489 -1.444752,6.512497 -1.83437,10.177505c-0.0425,0.394989 -0.078632,0.796249 -0.11525,1.197495c2.279247,-0.75 4.236248,-1.52124 6.623999,-2.050003c1.85738,-0.41124 3.97562,-0.676239 6.70113,-0.676239c3.115253,0 5.437,0.346252 7.482502,0.861237c2.04538,0.515015 3.81488,1.198761 5.82563,1.873764c-0.019001,-0.410004 -0.055622,-0.811264 -0.09763,-1.206253c-0.390121,-3.664993 -1.016121,-7.095001 -1.834499,-10.177505" id="path172"/>
   <path fill="#594b5a" fill-rule="nonzero" d="m58.374939,65.173752c0,-1.345139 -1.091747,-2.437515 -2.436996,-2.437515c-1.344631,0 -2.435501,1.092377 -2.435501,2.437515l4.872498,0" id="path174"/>
   <path fill="#efede2" fill-rule="nonzero" d="m59.055695,65.173752l-1.361374,0c0,-0.96875 -0.78812,-1.757248 -1.756371,-1.757248c-0.967751,0 -1.754879,0.788498 -1.754879,1.757248l-1.361248,0c0,-1.720108 1.397877,-3.118637 3.116127,-3.118637c1.71875,0 3.117744,1.398514 3.117744,3.118637" id="path176"/>
   <path fill="#594b5a" fill-rule="nonzero" d="m58.374939,65.173752c0,1.346237 -1.091747,2.439987 -2.436996,2.439987c-1.344631,0 -2.435501,-1.09375 -2.435501,-2.439987l4.872498,0" id="path178"/>
   <path fill="#efede2" fill-rule="nonzero" d="m55.937943,68.294861c-1.71825,0 -3.116131,-1.399872 -3.116131,-3.121109l1.361248,0c0,0.970245 0.787121,1.75975 1.754883,1.75975c0.96825,0 1.756371,-0.78952 1.756371,-1.75975l1.361366,0c0,1.721237 -1.398987,3.121109 -3.117737,3.121109" id="path180"/>
   <path fill="#594b5a" fill-rule="nonzero" d="m55.937943,70.377365c-2.869633,0 -5.196751,-2.332489 -5.196751,-5.203613c0,-2.870132 2.327129,-5.201126 5.196751,-5.201126c2.870117,0 5.19825,2.330994 5.19825,5.201126c0,2.871124 -2.328133,5.203613 -5.19825,5.203613zm-0.000881,-13.104996c-4.359001,0 -7.89463,3.540115 -7.89463,7.900009c0,4.363739 3.535629,7.905243 7.89463,7.905243c4.360249,0 7.897877,-3.541504 7.897877,-7.905243c0,-4.359894 -3.537628,-7.900009 -7.897877,-7.900009" id="path182"/>
   <path fill="#efede2" fill-rule="nonzero" d="m55.937943,69.016129c-2.11475,0 -3.834881,-1.723633 -3.834881,-3.842377c0,-2.11763 1.720131,-3.839752 3.834881,-3.839752c2.11525,0 3.836487,1.722122 3.836487,3.839752c0,2.118729 -1.721237,3.842377 -3.836487,3.842377zm-0.000881,-13.106003c-5.103619,0 -9.255871,4.154739 -9.255871,9.262253c0,5.110245 4.152252,9.266495 9.255871,9.266495c5.105381,0 9.259251,-4.15625 9.259251,-9.266495c0,-5.107513 -4.153877,-9.262253 -9.259251,-9.262253zm0.000881,14.467239c2.870117,0 5.19825,-2.332489 5.19825,-5.203613c0,-2.870132 -2.328133,-5.201126 -5.19825,-5.201126c-2.869633,0 -5.196751,2.330994 -5.196751,5.201126c0,2.871124 2.327129,5.203613 5.196751,5.203613zm-0.000881,-13.104996c4.360249,0 7.897877,3.540115 7.897877,7.900009c0,4.363739 -3.537628,7.905243 -7.897877,7.905243c-4.359001,0 -7.89463,-3.541504 -7.89463,-7.905243c0,-4.359894 3.535629,-7.900009 7.89463,-7.900009" id="path184"/>
   <path fill="#594b5a" fill-rule="nonzero" d="m46.624561,56.026367c-1.021999,0 -1.999119,-0.584 -2.452251,-1.573746c-2.349987,-5.138748 -5.54287,-6.318878 -5.67762,-6.366379l0.046383,0.014999l1.6045,-5.144989c0.560997,0.174988 5.57362,1.921249 8.92762,9.253616c0.618759,1.354004 0.02351,2.952621 -1.329502,3.571381c-0.363369,0.166489 -0.744118,0.245117 -1.119129,0.245117" id="path186"/>
   <path fill="#efede2" fill-rule="nonzero" d="m39.251442,41.251495l-0.405201,1.300003l-1.605,5.143005l1.236301,0.386993l-0.435101,1.289001c0.000999,0 0.700699,0.264999 1.646,1.084991c0.876999,0.761002 2.151398,2.170013 3.246098,4.563004c0.658802,1.438995 2.107002,2.369003 3.690002,2.369003c0.5844,0 1.151398,-0.124008 1.685501,-0.367996c2.033298,-0.931 2.931198,-3.34201 2.001499,-5.375c-1.4981,-3.275009 -3.484901,-5.903 -5.9062,-7.814011c-1.887802,-1.488998 -3.4268,-2.039993 -3.854,-2.172989l-1.2999,-0.406006l0,0zm0.8941,1.705002c0.561001,0.175003 5.5737,1.921005 8.9277,9.253006c0.618698,1.353989 0.023499,2.952988 -1.329601,3.571991c-0.3633,0.166 -0.744099,0.244995 -1.119099,0.244995c-1.021999,0 -1.9991,-0.584 -2.452202,-1.57399c-2.349998,-5.139008 -5.5429,-6.319 -5.6777,-6.365997l0.046402,0.014999l1.6045,-5.145004" id="path188"/>
   <path fill="#594b5a" fill-rule="nonzero" d="m45.010323,66.946243c-0.664131,0 -1.316502,-0.318878 -1.717381,-0.910126l-5.526882,-8.152374c-0.35537,-0.523849 -0.451618,-1.181122 -0.26112,-1.785126c0.19038,-0.6035 0.646,-1.088379 1.237751,-1.313507l7.44138,-2.840363c1.068871,-0.409622 2.26762,0.127991 2.675251,1.197754c0.408249,1.06987 -0.12788,2.266098 -1.19725,2.674866l-4.995998,1.907639l4.057987,5.984863c0.642132,0.947754 0.39463,2.236374 -0.55262,2.878998c-0.355999,0.241135 -0.76075,0.357376 -1.161118,0.357376" id="path190"/>
   <path fill="#efede2" fill-rule="nonzero" d="m46.923321,50.446243c-0.41988,0 -0.8325,0.076126 -1.226498,0.227509l-7.439503,2.838867c-0.98587,0.376022 -1.733379,1.170013 -2.050751,2.176254c-0.317379,1.00737 -0.159748,2.085999 0.433121,2.959991l5.526371,8.150879c0.640129,0.943878 1.703129,1.507874 2.84425,1.507874c0.68837,0 1.354,-0.205124 1.925251,-0.59137c0.758751,-0.515137 1.272499,-1.294876 1.445248,-2.194748c0.172871,-0.901382 -0.015129,-1.815506 -0.530247,-2.575256l-3.09325,-4.5625l3.390129,-1.293991c0.856998,-0.327133 1.53513,-0.96875 1.909748,-1.806152c0.375,-0.835876 0.401253,-1.769989 0.074131,-2.625977c-0.504379,-1.322754 -1.793381,-2.21138 -3.208,-2.21138zm0,1.361374c0.834499,0 1.62112,0.508759 1.936001,1.334885c0.408249,1.06987 -0.12788,2.266098 -1.19725,2.674866l-4.995998,1.907639l4.057987,5.984863c0.642132,0.947754 0.39463,2.236374 -0.55262,2.878998c-0.355999,0.241135 -0.76075,0.357376 -1.161118,0.357376c-0.664131,0 -1.316502,-0.318878 -1.717381,-0.910126l-5.526882,-8.152374c-0.35537,-0.523849 -0.451618,-1.181122 -0.26112,-1.785126c0.19038,-0.6035 0.646,-1.088379 1.237751,-1.313507l7.44138,-2.840363c0.24313,-0.092255 0.49313,-0.137131 0.73925,-0.137131" id="path192"/>
   <path fill="#594b5a" fill-rule="nonzero" d="m23.849569,70.377365c-2.869129,0 -5.196249,-2.332489 -5.196249,-5.203613c0,-2.870132 2.32712,-5.201126 5.196249,-5.201126c2.870121,0 5.19825,2.330994 5.19825,5.201126c0,2.871124 -2.328129,5.203613 -5.19825,5.203613zm4.439999,-9.131378c-1.961868,-1.656235 -4.314499,-2.947235 -6.092249,-3.797241c-3.566,0.761124 -6.242749,3.931122 -6.242749,7.723633c0,4.363739 3.535619,7.905243 7.8945,7.905243c3.973251,0 7.254002,-2.943878 7.806751,-6.769119c-0.592373,-1.681152 -1.545502,-3.525879 -3.366253,-5.062531" id="path194"/>
   <path fill="#ef268b" fill-rule="nonzero" d="m33.651321,68.379868l9.641121,0c-2.936001,-4.621124 -7.863251,-11.84375 -9.631752,-14.424866c-0.410748,-0.598633 -1.089371,-0.955032 -1.8165,-0.955032l-2.915001,0c-2.038631,0 -3.456501,-1.709976 -2.660629,-3.722717c0.880871,-2.2285 3.966248,-2.672272 3.57325,-3.782272c-0.19138,-0.539978 -0.37888,-1.042496 -0.463871,-1.19249c0,0 -5.647999,0.726242 -8.7505,4.407364c-0.29538,0.350128 -0.52837,0.848633 -0.65962,1.178757c-0.053749,0.135239 0.07662,0.269012 0.212881,0.21875c0.497,-0.178757 1.81925,-0.702118 2.689369,-1.024872c0.158251,-0.058609 0.2945,0.123505 0.193871,0.260254c-0.328131,0.444748 -0.849121,1.36087 -1.269001,2.198761c-0.17775,0.35199 -0.473129,0.630859 -0.838869,0.779739c-0.38188,0.154739 -1.06938,0.426239 -1.54538,0.647507c-0.229,0.106369 -0.337502,0.370117 -0.24275,0.604004c0.283749,0.698746 0.792999,1.733368 1.07275,1.835846c0.613369,0.222641 5.49662,2.020004 9.068871,5.117752c2.50338,2.171371 3.803751,5.732391 4.341749,7.8535" id="path198"/>
   <path fill="#efede2" fill-rule="nonzero" d="m30.107939,42.836502l-0.9039,0.115997c-0.251801,0.03299 -6.212799,0.839005 -9.617599,4.87999c-0.417,0.494003 -0.711,1.118011 -0.883699,1.554001c-0.1875,0.471008 -0.1299,1.001999 0.154699,1.422012c0.1875,0.276001 0.456001,0.479996 0.7626,0.585999c-0.269499,0.112 -0.5469,0.231003 -0.7836,0.339996c-0.888599,0.412994 -1.2969,1.445999 -0.9298,2.350006c0.916201,2.257996 1.5602,2.491989 1.869699,2.603989c0.870602,0.31601 5.382801,2.041 8.641102,4.867004c2.4263,2.102997 3.545998,5.707001 3.914602,7.158997l0.260799,1.027008l13.178101,0l-1.329002,-2.09201c-2.914101,-4.585999 -7.724598,-11.641998 -9.657799,-14.462997c-0.664501,-0.970001 -1.763199,-1.548996 -2.940001,-1.548996l-2.915001,0c-0.578602,0 -1.077602,-0.225006 -1.334999,-0.604004c-0.229801,-0.338989 -0.2505,-0.772003 -0.059502,-1.255997c0.299801,-0.759003 1.1255,-1.279999 1.8535,-1.740997c0.855,-0.540009 2.285698,-1.445007 1.736801,-2.994995c-0.3643,-1.029007 -0.482903,-1.269012 -0.565403,-1.414001l-0.451599,-0.791l0,0zm-0.73,1.465988c0.084999,0.150009 0.272499,0.653 0.463902,1.192001c0.392998,1.110001 -2.692402,1.554001 -3.573299,3.783005c-0.795902,2.011993 0.621998,3.722 2.660698,3.722l2.915001,0c0.727102,0 1.405703,0.356995 1.816401,0.955994c1.7686,2.581009 6.695801,9.803009 9.631802,14.424011l-9.641102,0c-0.537998,-2.121002 -1.8384,-5.682007 -4.341803,-7.853012c-3.572199,-3.097992 -8.455498,-4.894989 -9.068798,-5.117996c-0.2798,-0.100998 -0.789,-1.136993 -1.0728,-1.835999c-0.0947,-0.233994 0.0138,-0.496994 0.2428,-0.604004c0.476,-0.220993 1.1635,-0.491989 1.5453,-0.646988c0.365801,-0.149002 0.6612,-0.428009 0.8389,-0.779999c0.419901,-0.838013 0.940901,-1.754013 1.269001,-2.199005c0.087399,-0.119003 -0.003901,-0.272995 -0.1327,-0.272995l-0.061201,0.012985c-0.8701,0.323013 -2.192299,0.846008 -2.689299,1.025009l-0.058201,0.011002c-0.111799,0 -0.200701,-0.115005 -0.154699,-0.230011c0.131199,-0.329987 0.364199,-0.827988 0.659599,-1.178986c3.102501,-3.681 8.7505,-4.407013 8.7505,-4.407013" id="path200"/>
   <path fill="#ef268b" fill-rule="nonzero" d="m36.503441,56.305115c0.022499,-0.164001 0.053749,-0.327621 0.105,-0.488739c0.278252,-0.883759 0.933502,-1.580124 1.798752,-1.910126l2.376499,-0.906281l-6.564999,0c0.467869,0.61377 1.162117,1.629883 2.284748,3.30513" id="path202"/>
   <path fill="#efede2" fill-rule="nonzero" d="m48.169441,51.637497l-16.697802,0l1.663702,2.186005c0.4613,0.606995 1.198101,1.688995 2.237198,3.23999l1.992203,2.973007l0.487301,-3.544998l0.054699,-0.266998c0.152798,-0.483002 0.512199,-0.866013 0.985798,-1.046005l2.376503,-0.906998l6.900398,-2.634003l0,0zm-7.3857,1.362l-2.376499,0.906998c-0.865299,0.330002 -1.5205,1.026001 -1.798801,1.910004c-0.0509,0.160995 -0.0825,0.324997 -0.105,0.488998c-1.122601,-1.675995 -1.816898,-2.692001 -2.284698,-3.304993l6.564999,0" id="path204"/>
   <path fill="#594b5a" fill-rule="nonzero" d="m32.78619,38.173752l3.50388,-0.636261c0.334503,-0.061249 0.621502,0.248749 0.54837,0.590012l-0.28038,1.312485c-0.061497,0.287506 -0.24025,0.533752 -0.49062,0.675003l-3.23938,1.831253c-0.21962,0.125 -0.31287,0.400009 -0.216747,0.637497l0.529247,1.30751c0.096752,0.237503 0.369251,0.341248 0.59288,0.224991l6.790001,-3.538742c0.226131,-0.117508 0.38525,-0.337494 0.428249,-0.595001c0.225502,-1.351257 0.548752,-5.876251 -4.123131,-5.717499c-3.315369,0.112503 -4.09462,2.752502 -4.273369,3.662491c-0.02837,0.142517 0.091251,0.271255 0.230999,0.246262" id="path206"/>
   <path fill="#efede2" fill-rule="nonzero" d="m37.065441,32.898499l-0.283199,0.005005c-4.321301,0.147995 -5.350603,3.681 -5.563002,4.759995c-0.091301,0.464005 0.028297,0.940002 0.327599,1.304001c0.297901,0.362991 0.736902,0.569992 1.204103,0.569992l0.2789,-0.024994l1.9697,-0.356995l-2.841301,1.605988c-0.813501,0.460007 -1.161203,1.463013 -0.808702,2.334l0.5294,1.306c0.276403,0.684006 0.928305,1.125 1.660101,1.125c0.285202,0 0.569901,-0.069992 0.823303,-0.202988l6.790497,-3.53801c0.6021,-0.313995 1.0294,-0.903992 1.141602,-1.578995c0.178799,-1.070007 0.423901,-3.759003 -1.154202,-5.623001c-0.650898,-0.768997 -1.886299,-1.684998 -4.074799,-1.684998l0,0zm0,1.362991c4.423901,0 4.107899,4.392014 3.8862,5.721008c-0.0429,0.257996 -0.202099,0.477005 -0.4282,0.595001l-6.790001,3.539001l-0.194401,0.046997c-0.167999,0 -0.329098,-0.100998 -0.398499,-0.272003l-0.529202,-1.307999c-0.096199,-0.237 -0.002899,-0.511993 0.216702,-0.636993l3.239399,-1.832001c0.250401,-0.141006 0.4291,-0.387009 0.490601,-0.675003l0.280399,-1.311996c0.066902,-0.312012 -0.1675,-0.597 -0.463898,-0.597l-0.084499,0.006989l-3.503502,0.636002l-0.036098,0.003006c-0.123501,0 -0.2211,-0.119003 -0.195202,-0.249008c0.178699,-0.909988 0.958,-3.549988 4.2733,-3.661987l0.2369,-0.004013" id="path208"/>
   <path fill="#594b5a" fill-rule="nonzero" d="m49.072823,52.209869c-3.35363,-7.332367 -8.366253,-9.078629 -8.92688,-9.25238c-0.643002,-0.201248 -1.303619,-0.14624 -1.876369,0.10376c-0.334003,0.084991 -0.643623,0.273743 -0.865253,0.571243l-0.107498,0.143738l-0.203999,0.274994l-3.643631,4.8965l-4.606882,0c-0.859379,0 -1.556122,0.69577 -1.556122,1.556137c0,0.858383 0.696751,1.556122 1.556122,1.556122l5.388632,0c0.491749,0 0.95462,-0.232376 1.248501,-0.62738l2.617249,-3.517609c0.140629,0.073746 0.288132,0.137497 0.444382,0.186249c0.028748,0.008759 2.648869,0.994888 4.880737,4.897751l-4.679619,1.786118c-0.591251,0.225128 -1.046879,0.708511 -1.237259,1.313507c-0.190502,0.604004 -0.09425,1.261261 0.26112,1.785126l5.526878,8.152374c0.400379,0.591248 1.053249,0.910126 1.717381,0.910126c0.399879,0 0.804619,-0.116241 1.161121,-0.357376c0.94775,-0.642624 1.194759,-1.931244 0.55262,-2.878998l-4.058502,-5.984863l4.996502,-1.907639l0.04063,-0.019989l0.040501,-0.016129l0.24313,-0.126007l0.110367,-0.072754c1.09713,-0.71637 1.538132,-2.143616 0.976131,-3.37262" id="path210"/>
   <path fill="#efede2" fill-rule="nonzero" d="m39.347641,41.473495c-0.524799,0 -1.038101,0.100006 -1.525799,0.298996c-0.605499,0.179001 -1.138802,0.549011 -1.5098,1.047012l-0.0826,0.112c-0.086403,0.103989 -0.1689,0.214996 -0.2509,0.33699l-3.213402,4.318008l-3.9228,0c-1.608902,0 -2.917501,1.307999 -2.917501,2.916992c0,1.609009 1.308599,2.917999 2.917501,2.917999l5.388601,0c0.917999,0 1.792999,-0.440002 2.3409,-1.175995l1.954098,-2.626999c0.601501,0.358994 1.708,1.162003 2.841202,2.707993l-3.110302,1.186005c-0.985897,0.375992 -1.733398,1.169998 -2.050297,2.175995c-0.317402,1.008011 -0.159702,2.085999 0.432598,2.960007l5.526901,8.151001c0.639599,0.944 1.703098,1.507996 2.844299,1.507996c0.688301,0 1.354,-0.205002 1.924702,-0.591003c0.759296,-0.514999 1.272999,-1.294998 1.445797,-2.196991c0.172802,-0.899002 -0.015198,-1.814011 -0.5303,-2.572998l-3.093201,-4.563004l3.390102,-1.294006l0.094299,-0.035995l0.039101,-0.020996l0.028698,-0.013c0.1245,-0.057007 0.247601,-0.121002 0.365303,-0.189011l0.180099,-0.116989c1.6544,-1.091003 2.2808,-3.266006 1.4561,-5.070007c-1.497601,-3.274002 -3.484402,-5.901993 -5.905701,-7.813995c-1.888302,-1.490005 -3.427299,-2.040009 -3.854,-2.171997c-0.391201,-0.123001 -0.796001,-0.184006 -1.203701,-0.184006l0,0zm0,1.361008c0.264202,0 0.5327,0.038986 0.798302,0.122986c0.5606,0.174011 5.573299,1.920013 8.926899,9.252014c0.562,1.228989 0.120998,2.656998 -0.9762,3.372986l-0.110302,0.073013l-0.243198,0.125992l-0.040501,0.016006l-0.0406,0.019989l-4.996498,1.908005l4.058498,5.984009c0.6422,0.947998 0.3951,2.237 -0.552601,2.878998c-0.356499,0.241989 -0.761299,0.358002 -1.161098,0.358002c-0.664101,0 -1.317001,-0.319 -1.7174,-0.910004l-5.526901,-8.153c-0.3554,-0.524002 -0.451599,-1.181 -0.261101,-1.785004c0.190403,-0.604996 0.646,-1.087997 1.237301,-1.313004l4.6796,-1.787003c-2.231899,-3.901993 -4.851997,-4.888 -4.880798,-4.896988c-0.1562,-0.049011 -0.303699,-0.113007 -0.444302,-0.187012l-2.617298,3.518005c-0.2939,0.395004 -0.756702,0.628006 -1.248501,0.628006l-5.388601,0c-0.859402,0 -1.556103,-0.697998 -1.556103,-1.557007c0,-0.860001 0.696701,-1.556 1.556103,-1.556l4.606901,0l3.6436,-4.895996l0.203999,-0.274002l0.107502,-0.145004c0.2216,-0.297989 0.5312,-0.485992 0.8652,-0.570999c0.336399,-0.147995 0.702698,-0.22699 1.078197,-0.22699" id="path212"/>
   <path fill="#ef268b" fill-rule="nonzero" d="m55.937061,56.332489c0.727501,0 1.431129,0.097626 2.107883,0.263641l1.803246,-2.242126c0.462883,-0.527893 0.088379,-1.354034 -0.613365,-1.354034l-7.228504,0c-0.87838,0 -1.662128,0.56488 -1.921879,1.403763c-0.242622,0.786133 -0.748501,1.492752 -1.473629,1.96637l-0.143501,0.092255c-0.11137,0.064865 -0.220249,0.122498 -0.3335,0.173874l-0.047371,0.019989l-0.085999,0.038513l-3.806622,1.452606l3.200752,4.81163c0.985748,-3.805237 4.436497,-6.626495 8.5425,-6.626495" id="path214"/>
   <path fill="#efede2" fill-rule="nonzero" d="m59.23484,51.637497l-7.2285,0c-1.490299,0 -2.785599,0.949997 -3.222099,2.365005c-0.157299,0.507996 -0.482899,0.944 -0.917999,1.22699l-0.095699,0.063004l-0.189499,0.100006l-0.029701,0.013l-0.037102,0.015991l-3.805798,1.45401l-1.591301,0.606995l0.943401,1.418991l3.200699,4.811005l1.687,2.537003l0.764198,-2.949997c0.8554,-3.300003 3.826599,-5.606003 7.224602,-5.606003c0.575699,0 1.175301,0.074997 1.7822,0.225006l0.8428,0.207993l0.543396,-0.675995l1.789604,-2.225006c0.5513,-0.649002 0.675797,-1.530991 0.323296,-2.307999c-0.357498,-0.789001 -1.117798,-1.279999 -1.983498,-1.279999l0,0zm0,1.362c0.701698,0 1.076202,0.826996 0.613304,1.354996l-1.8032,2.242004c-0.676804,-0.166 -1.380402,-0.264008 -2.107903,-0.264008c-4.105999,0 -7.556702,2.821014 -8.5425,6.627014l-3.200703,-4.812012l3.806602,-1.452988l0.085999,-0.03801l0.047401,-0.020004c0.113197,-0.051987 0.222099,-0.108994 0.3335,-0.173996l0.143497,-0.091995c0.725101,-0.473999 1.231003,-1.181 1.473602,-1.966995c0.259701,-0.839005 1.043499,-1.403 1.921898,-1.403l7.2285,0" id="path216"/>
   <path fill="#594b5a" fill-rule="nonzero" d="m23.849569,62.736237c-1.344629,0 -2.434999,1.092377 -2.434999,2.437515c0,1.346237 1.09037,2.439987 2.434999,2.439987c1.345251,0 2.437,-1.09375 2.437,-2.439987c0,-1.345139 -1.091749,-2.437515 -2.437,-2.437515" id="path218"/>
   <path fill="#efede2" fill-rule="nonzero" d="m23.849569,61.375c-2.09375,0 -3.796881,1.703629 -3.796881,3.798752c0,2.096237 1.703121,3.801239 3.796881,3.801239c2.094749,0 3.79837,-1.705017 3.79837,-3.801239c0,-2.095123 -1.70363,-3.798752 -3.79837,-3.798752zm0,1.361237c1.345251,0 2.437,1.092377 2.437,2.437515c0,1.346237 -1.091749,2.439987 -2.437,2.439987c-1.344629,0 -2.434999,-1.09375 -2.434999,-2.439987c0,-1.345139 1.09037,-2.437515 2.434999,-2.437515" id="path220"/>
  </g>
 </g>
</svg>