<?xml version="1.0"?><svg width="999" height="749" xmlns="http://www.w3.org/2000/svg">
 <metadata id="metadata25">image/svg+xmlUmbrellaumbrella protect sun rain pink icon</metadata>

 <g>
  <title>Layer 1</title>
  <g id="g2400">
   <path d="m503.669006,341.27002l-25,14l99,177l9,17l11,15l12,12l12,9l13,6l14,2l14,-1l15,-6l12,-10l8,-11l4,-14l1,-16l-4,-17l-6,-18.000031l-10,-19l-13,-20l-20,13l8,14l7,13l5,13.000031l3,12l1,10l-1,9l-4,8l-7,5l-8,4l-8,1l-7,-1l-7,-4l-8,-6l-7,-9l-8,-11l-7,-14l-98,-177z" fill="#000000" id="path12"/>
   <path d="m206.669006,525.27002l2,-19.000031l2,-20l3,-22l4,-22l5,-24l6,-24l7,-25l8,-24.999969l10,-25l11,-25l13,-25l15,-25.000015l17,-25l19,-24l21,-23l24,-23l-16,25l-10,31l-4,36l1,39.000015l6,39l10,39l14,34.999969l17,31l-13,-1l-13,-1l-13,1l-13,1l-13,3l-14,4l-12,4l-13,6l-13,7l-11,8l-12,9l-10,9l-10,12l-10,12l-8,13l-7,14.000031z" fill="#f38598" id="path14"/>
   <path d="m403.669006,417.269989l-16,-31l-12,-35.999969l-10,-38l-5,-39l-2,-38.000015l3,-35l6,-32l10,-25l19,0l17,3l17,4l16,6l16,8l15,9l14,11l15,12l13,12l12,14l12,13l12,15l11,14.000015l11,15l10,14l9,15l-13,-2l-13,0l-13,1l-14,2l-14,3l-14,5l-13,5l-14,7l-13,7l-13,9l-11,10l-12,9.999969l-10,12l-10,12l-9,14l-7,14z" fill="#1b86c8" id="path16"/>
   <path d="m793.669006,204.270004l-16,-8l-19,-9l-20,-9l-21,-9l-23,-9l-23,-8l-25,-8l-25,-7l-27,-5l-28,-5l-28,-3l-29,0l-30,0l-30,3l-31,6l-32,9l15,-2l14,1l16,3l16,6l16,6l17,9l15,10l16,11l16,13l15,13l14,14l13,15l12,15.000015l11,15l9,15l8,16l6,-12l6,-11l7,-10l9,-11l9,-9.000015l10,-8l12,-9l11,-6l13,-7l13,-5l14,-4l14,-4l14,-2l16,-1l15,0l15,1z" fill="#1aa94a" id="path18"/>
  </g>
 </g>
</svg>